<svg xmlns="http://www.w3.org/2000/svg" style="display: none;">
    <!-- Flecha hacia abajo -->
    <symbol id="icon_sprite_chevron_down" fill="none" viewBox="0 0 24 24">
        <path fill="currentColor" fill-rule="evenodd" d="M13 18.7a1.4 1.4 0 0 1-2 0L.4 7.4a2 2 0 0 1 0-2 1.4 1.4 0 0 1 2 0l9.6 10 9.6-10.2a1.4 1.4 0 0 1 2 0 2 2 0 0 1 0 2.1z"
              clip-rule="evenodd"></path>
    </symbol>
    <!-- Flecha hacia la derecha -->
    <symbol id="icon_sprite_chevron_right" fill="none" viewBox="0 0 24 24">
        <path fill="currentColor" fill-rule="evenodd"
              d="M7.4 23.6a1.5 1.5 0 0 1-2 0 1.4 1.4 0 0 1 0-2l10-9.6-10-9.6a1.4 1.4 0 0 1 0-2 1.5 1.5 0 0 1 2 0L18.6 11c.5.6.5 1.4 0 2z"
              clip-rule="evenodd"></path>
    </symbol>
    <!-- Pencil -->
    <symbol id="icon_sprite_pencil" fill="none" viewBox="0 0 24 24">
        <path fill="currentColor" fill-rule="evenodd"
              d="m0 23.5 1.1-3.7A4 4 0 0 1 2.2 18l14-14a.5.5 0 0 1 .8 0l3 3a.5.5 0 0 1 0 .8l-14 14c-.5.5-1.1.9-1.8 1L.5 24a.4.4 0 0 1-.5-.5m22-23L23.5 2a1.6 1.6 0 0 1 0 2.3L21.7 6a.5.5 0 0 1-.8 0l-3-3a.5.5 0 0 1 0-.8L19.7.5a1.6 1.6 0 0 1 2.3 0"
              clip-rule="evenodd"></path>
    </symbol>
    <!-- cash -->
    <symbol id="icon_sprite_cash" fill="none" viewBox="0 0 24 24">
        <path fill="currentColor" fill-rule="evenodd"
              d="M23 19H1a1 1 0 0 1-1-1V6c0-.6.4-1 1-1h22c.6 0 1 .4 1 1v12a1 1 0 0 1-1 1m-.8-9.3a3 3 0 0 1-2.8-2.8H4.6c0 1.5-1.2 2.8-2.8 2.8v5.1c1.4 0 2.6 1 2.8 2.3h14.8a3 3 0 0 1 2.8-2.3zm-10.2 6c-1.7 0-2.8-1.4-2.8-3.7s1.1-3.7 2.8-3.7 2.8 1.4 2.8 3.7-1.1 3.7-2.8 3.7"
              clip-rule="evenodd"></path>
    </symbol>
    <!-- card -->
    <symbol id="icon_sprite_credit_card" fill="none" viewBox="0 0 24 24">
        <path fill="currentColor" fill-rule="evenodd"
              d="M22 21H2a2 2 0 0 1-2-2V5a2 2 0 0 1 2-2h20a2 2 0 0 1 2 2v14a2 2 0 0 1-2 2M3 16.5l.5.5h2l.5-.5v-1l-.5-.5h-2l-.5.5zm4-7L6.5 9h-4l-.5.5v3l.5.5h4l.5-.5zm4 6-.5-.5h-2l-.5.5v1l.5.5h2l.5-.5zm5 0-.5-.5h-2l-.5.5v1l.5.5h2l.5-.5zm5 0-.5-.5h-2l-.5.5v1l.5.5h2l.5-.5z"
              clip-rule="evenodd"></path>
    </symbol>
    <!-- chart -->
    <symbol id="icon_sprite_line_chart_down" fill="none" viewBox="0 0 24 24">
        <path fill="currentColor" fill-rule="evenodd"
              d="M1 1.5c.5 0 1 .4 1 1v4.4L9.6 14l5.4-3.4a1 1 0 0 1 1.3.2l4.3 6a1 1 0 0 1-.2 1.3A1 1 0 0 1 19 18l-3.8-5.2-5.2 3.3a1 1 0 0 1-1.1 0L2 9.4v11h21a1 1 0 0 1 0 2H0v-20c0-.6.4-1 1-1"
              clip-rule="evenodd"></path>
    </symbol>
    <!-- plus circle -->
    <symbol id="icon_sprite_plus_circle_fill" fill="none" viewBox="0 0 24 24">
        <path fill="currentColor"
              d="M12 0a12 12 0 1 0 0 24 12 12 0 0 0 0-24m4.8 13.2h-3.6v3.6c0 .7-.5 1.2-1.2 1.2s-1.2-.5-1.2-1.2v-3.6H7.2c-.7 0-1.2-.5-1.2-1.2s.5-1.2 1.2-1.2h3.6V7.2c0-.7.5-1.2 1.2-1.2s1.2.5 1.2 1.2v3.6h3.6c.7 0 1.2.5 1.2 1.2s-.5 1.2-1.2 1.2"></path>
    </symbol>
    <!-- cloud -->
    <symbol id="icon_sprite_arrow_from_cloud" fill="none" viewBox="0 0 24 24">
        <path fill="currentColor" fill-rule="evenodd"
              d="M18.5 16.6h-2.8a1 1 0 1 1 0-1.8h2.7a3.7 3.7 0 0 0 3.8-3.7c0-2.5-2-3.3-3-3.7a1 1 0 0 1-.7-.8v-.5a5 5 0 0 0-4.6-4.3c-2.1 0-3.3 1.3-4 2.2a1 1 0 0 1-1 .3l-1.1-.1A3 3 0 0 0 5 6.9v.6a1 1 0 0 1-.6.8c-1.2.5-2.7 1.2-2.7 3.4a3 3 0 0 0 3.3 3h3.2a1 1 0 1 1 0 2H5.1a5 5 0 0 1-1.9-9.9 4.6 4.6 0 0 1 5.6-4.4 6.5 6.5 0 0 1 11.5 3.4 5.5 5.5 0 0 1-1.8 10.8m-9.7 1.9H11V9.2a1 1 0 0 1 1.8 0v9.3h2.3a.5.5 0 0 1 .4.7l-3.2 4.6a.5.5 0 0 1-.8 0l-3.2-4.6a.5.5 0 0 1 .4-.7"
              clip-rule="evenodd"></path>
    </symbol>
    <!-- documente arrow up -->
    <symbol id="icon_sprite_document_with_arrow_up" fill="none" viewBox="0 0 24 24">
        <path fill="currentColor"
              d="M21 9.5A1.5 1.5 0 0 0 19.5 8h-5A1.5 1.5 0 0 1 13 6.5v-5A1.5 1.5 0 0 0 11.5 0h-7A1.5 1.5 0 0 0 3 1.5v21A1.5 1.5 0 0 0 4.5 24h6.8v-7.2h-2c-.1 0-.3-.2-.3-.4v-.2l2.7-4a.4.4 0 0 1 .6 0l2.6 4 .1.2-.2.3-.2.1h-1.8V24h6.7a1.5 1.5 0 0 0 1.5-1.5z"></path>
        <path fill="currentColor" d="m14 6.5.5.5h5.3a.5.5 0 0 0 .3-.9L15 1a.5.5 0 0 0-.9.3z"></path>
    </symbol>
    <!-- undo -->
    <symbol id="icon_sprite_undo" fill="none" viewBox="0 0 24 24">
        <path fill="currentColor" fill-rule="evenodd"
              d="M12.6 24H3.4a1.1 1.1 0 1 1 0-2.3h9.2a8 8 0 1 0 0-16H6.9v2.9a.6.6 0 0 1-1 .4L.2 5a1 1 0 0 1 0-.9L6 .1a.6.6 0 0 1 1 .5v2.8h5.7a10.3 10.3 0 1 1 0 20.6"
              clip-rule="evenodd"></path>
    </symbol>
    <!-- redo-->
    <symbol id="icon_sprite_redo" fill="none" viewBox="0 0 24 24">
        <path fill="currentColor" fill-rule="evenodd"
              d="M11 21.7h9.2a1.1 1.1 0 1 1 0 2.3H11a10.3 10.3 0 1 1 0-20.6h5.8V.6a.6.6 0 0 1 .9-.5l5.7 4a.6.6 0 0 1 0 1l-5.7 4a.6.6 0 0 1-1-.5V5.7H11a8 8 0 0 0-8 8 8 8 0 0 0 8 8"
              clip-rule="evenodd"></path>
    </symbol>
    <!-- question circxle -->
    <symbol id="icon_sprite_question_mark_circle" fill="none" viewBox="0 0 24 24">
        <path fill="currentColor" fill-rule="evenodd"
              d="M12 24a12 12 0 1 1 0-24 12 12 0 0 1 0 24m0-22a10 10 0 1 0 0 20 10 10 0 0 0 0-20m1.1 12-.5.5h-1.1L11 14c0-3.3 2.8-3 2.8-5.5 0-.8-1-1.5-1.9-1.5-1 0-2 .7-2 1.5l.2.8a.5.5 0 0 1-.5.7h-1l-.5-.4L8 8.5C8 6.5 9.8 5 12 5s4 1.6 4 3.5c0 3.2-2.9 3-2.9 5.5M12 16a1.5 1.5 0 1 1-1.5 1.5A1.5 1.5 0 0 1 12 16"
              clip-rule="evenodd"></path>
    </symbol>
    <!-- caret down -->
    <symbol id="icon_sprite_caret_down" fill="none" viewBox="0 0 24 24">
        <path fill="currentColor" d="M11 19.5.2 6.1C-.4 5.2.3 4 1.3 4h21.4c1 0 1.7 1.2 1 2L13.1 19.6a1.4 1.4 0 0 1-2.2 0"></path>
    </symbol>
    <!-- search -->
    <symbol id="icon_sprite_search" fill="none" viewBox="0 0 24 24">
        <path fill="currentColor" fill-rule="evenodd"
              d="M10 0a10 10 0 0 1 8 15.9l5.3 4.5a2 2 0 0 1 .1 3 2 2 0 0 1-3-.1l-4.5-5.4A10 10 0 1 1 9.9 0m0 17.8A7.8 7.8 0 1 0 10 2a7.8 7.8 0 0 0 0 15.7"
              clip-rule="evenodd"></path>
    </symbol>
    <!-- close circle -->
    <symbol id="icon_sprite_close_circle_fill" fill="none" viewBox="0 0 24 24">
        <path fill="currentColor"
              d="M12 0a12 12 0 1 0 0 24 12 12 0 0 0 0-24m5.2 17.2a1.2 1.2 0 0 1-1.7 0L12 13.7l-3.5 3.5a1.2 1.2 0 0 1-1.7 0 1.2 1.2 0 0 1 0-1.7l3.5-3.5-3.5-3.5a1.2 1.2 0 0 1 0-1.7 1.2 1.2 0 0 1 1.7 0l3.5 3.5 3.5-3.5a1.2 1.2 0 0 1 1.7 0 1.2 1.2 0 0 1 0 1.7L13.7 12l3.5 3.5c.4.4.4 1.2 0 1.7"></path>
    </symbol>

</svg>

