<svg xmlns="http://www.w3.org/2000/svg" fill="none" viewBox="0 0 158 6"><path d="M3.53 3.852c.153-.013.293 0 .413-.017.064 0 .112-.013.172-.013.048-.013.108-.017.18-.055.292-.115.68-.442 1-.845.264-.331.548-.675.92-1.015.196-.165.4-.33.675-.467.252-.144.616-.229.948-.229.292.017.564.064.82.149.64.212 1.144.496 1.636.734.472.234.8.756 1.264.713.04 0 .1.06.148.08.44.243.756.264 1.171.196.412-.08.88-.28 1.388-.5.596-.255 1.172-.659 1.768-1.066.604-.408 1.236-.85 2.032-1.125.312-.157.66-.285 1.044-.353a2.935 2.935 0 0 1 1.211.055c.404.102.788.293 1.1.523.316.229.576.48.804.726.452.492.784.942 1.112 1.23.324.298.588.404.944.404.436.009.956-.233 1.64-.36.591-.111 1.135-.773 1.887-.824.06-.005.156-.123.252-.179l.336-.216a1.41 1.41 0 0 1 .372-.153c.764-.161 1.212-.132 1.596-.093.392.055.772.072 1.456.407.16.085.256.314.384.437.531.514.883 1.04 1.275 1.342.176.136.308.272.484.344.172.076.364.093.528-.043.068-.06.216-.017.34-.038.388-.076.84-.272 1.284-.569.504-.335 1.108-.62 1.556-1.188.196-.255.708-.25.84-.387a2.12 2.12 0 0 1 .896-.552c.343-.114.723-.106 1.1-.144.323-.038.675-.161 1.035-.098l.164.03c.06.013.136.043.204.064.136.05.284.102.392.178.112.072.24.144.328.225l.272.238c.312.318.544.607.784.82.504.445.804.89 1.112 1.082.316.2.512.284.96.174.18-.047.36-.06.547-.098a3.76 3.76 0 0 0 .58-.11c.4-.11.744-.522 1.224-.484.02 0 .06-.034.088-.051.848-.442 1.708-.964 2.76-1.35.444-.178.964-.268 1.495-.285l.408.047c.136.013.272.038.4.09l.388.13c.128.052.236.128.356.192.112.068.24.136.336.208.1.072.192.144.284.216.18.145.352.293.52.438l.956.87c.176.161.368.301.536.446.088.076.164.148.22.208.06.072.112.148.164.233.044.085.208.064.28.132.148.102.32.055.464-.017.148-.072.276-.14.464-.09.352.098.68-.148 1.016-.31.387-.186.76-.453 1.151-.7.272-.17.496-.365.668-.62.432.022.792-.411 1.24-.513.292-.068.724-.187.904-.344.396-.36.928-.4 1.444-.433.388-.021.783.042 1.163.157.36.11.704.242 1.068.335.304.085.624.349.88.565.244.204.416.459.648.633.42.322.86.581 1.324.598.2.017.396.09.572.119.092.03.188.021.28 0a.418.418 0 0 0 .252-.149c.04-.046.148-.055.224-.042a1.61 1.61 0 0 0 1.215-.522c.312-.323.856-.565 1.332-.862.508-.31 1.052-.696 1.704-.85.204-.05.344-.16.504-.267.156-.101.36-.152.636-.076.148.047.368.077.604.08.236.022.496.052.704.124.436.131.875.284 1.18.53.8.646 1.471 1.257 2.171 1.614.696.365 1.32.37 2.064.22.636-.135 1.196-.691 1.956-.768.347-.475 1.007-.65 1.427-1.048a1.57 1.57 0 0 1 .42-.302c.148-.076.288-.153.456-.208a4.618 4.618 0 0 1 1.768-.357c.324.034.652.051.96.175.312.093.624.233.884.416.54.352.927.776 1.283 1.154.352.382.664.726.976.972.408.319.76.417 1.16.357.4-.064.86-.289 1.368-.62.284-.178.568-.395.988-.484.312-.068.784-.348 1.128-.713.06-.076.228-.174.3-.174.464-.008.9-.127 1.363-.212.464-.09.948-.123 1.392-.021.868.212 1.54.658 2.144 1.06.604.413 1.156.816 1.724 1.058.235.106.495.31.723.123.128.242.292.166.5.106a.984.984 0 0 1 .38-.068.789.789 0 0 1 .38.03.844.844 0 0 0 .424 0c.136-.047.268-.093.404-.136.296-.106.588-.267.892-.416.648-.314 1.316-.7 2.052-1.04.732-.331 1.563-.633 2.467-.65.176.009.352.034.524.068.168.043.336.102.5.149.32.11.704.11.92.416.084.11.396.187.596.284.7.349 1.356.875 1.996.973.312.046.595.157.879.203.28.06.56.026.776-.131.06-.051.148-.068.244-.077.1-.017.208-.042.296-.076.72-.34 1.62-.82 2.288-1.694.412-.068.788-.365 1.212-.594.156-.085.34-.14.52-.2.172-.072.344-.136.48-.28a.483.483 0 0 1 .252-.064c.24 0 .467.03.691.094.228.042.444.119.692.161.204.038.392.068.584.106.18.047.376.102.564.212.676.404 1.18.917 1.668 1.367.484.45.972.866 1.496 1.032.212.301.56.335.876.357.587.008 1.055-.4 1.679-.688a10.518 10.518 0 0 0 1.872-1.104c.52-.382 1.188-.68 1.952-.713.376-.021.768.038 1.132.149a5.1 5.1 0 0 1 .987.45c.308.174.648.34.756.687.028.085.3.276.404.276.224.009.344.208.504.268.228.08.356.293.508.45.148.165.336.276.556.127.384.106.784.076 1.224-.05.44-.128.9-.366 1.376-.625.228-.127.42-.293.727-.314.2-.013.6-.23.724-.403.312-.408.772-.574 1.24-.76.688-.298 1.512-.48 2.348-.4.828.094 1.564.425 2.179.782.548.314 1 .709 1.46 1.023.228.161.5.28.72.365.22.09.448.17.664.31.032.021.084.021.124.021.2 0 .392-.055.572-.047.232.017.568.132.68.022.196-.225.372-.14.54-.23.212-.127.388-.225.608-.301.2-.076.44-.115.64.004.088.055.156.195.172.365.027.53-.076.854-.28 1.125-.208.28-.56.552-1.252.781-.88.255-1.712.14-2.472-.123a6.332 6.332 0 0 1-1.08-.505c-.32-.182-.624-.36-.932-.514-.635-.7-1.467-1.014-2.151-1.235-.18-.064-.36-.11-.544-.149-.188-.008-.376-.063-.576-.033-.396.004-.804.157-1.156.394a23.9 23.9 0 0 1-2.28 1.431 6.3 6.3 0 0 1-2.163.705c-.208.025-.416.06-.632.046h-.324l-.32-.055a2.713 2.713 0 0 1-1.168-.475c-.416-.289-.692-.739-1.08-.917-.424-.2-.768-.467-1.107-.684-.336-.208-.676-.36-1.016-.322-.46.038-.916.178-1.412.424-.492.246-.996.573-1.512.938-.556.395-1.168.82-1.964 1.015-.184.034-.368.068-.556.08-.191-.008-.391-.012-.591-.084-.416-.132-.952-.289-1.456-.361-.2-.034-.524-.153-.628-.293-.464-.56-1.02-.904-1.508-1.282-.304-.242-.528-.654-.752-.7-.372-.06-.608-.272-.888-.34-.204-.055-.412-.03-.572-.225-.044-.068-.248-.068-.303-.017-.3.28-.668.28-1.04.497-.868.5-1.704 1.366-2.872 1.986-.484.25-1.008.506-1.6.612a2.967 2.967 0 0 1-1.715-.187c-.728.017-1.332-.429-1.868-.718-.416-.225-.768-.509-1.136-.713-.372-.204-.732-.267-1.1-.403-.48-.183-1.08.068-1.644.276-.315.114-.599.407-.987.348-.052-.009-.196.076-.236.132-.308.454-.876.704-1.32.827-.716.2-1.364.578-2.14.71-.632.105-1.332.122-1.956-.069-.447-.127-.879-.254-1.243-.56-.284-.23-.732-.335-1.084-.526-.348-.187-.68-.408-1.008-.582-.36-.195-.72-.374-1.072-.48-.356-.11-.704-.178-1.048-.148-.372.02-.736.153-1.123.301-.365.144-.772.272-1.144.493-.528.31-1.02.713-1.612 1.048-.144.085-.312.153-.468.23-.168.059-.34.123-.524.157-.188.03-.372.067-.568.05a3.09 3.09 0 0 1-.288-.017 4.907 4.907 0 0 1-.284-.067c-.46.093-.828-.23-1.144-.493-.303-.25-.555-.599-.92-.717-.103-.034-.215-.174-.323-.268-.228-.208-.28-.522-.6-.662-.22-.098-.412-.378-.632-.488-.208-.12-.456-.323-.688-.145a.484.484 0 0 0-.292-.152 1.166 1.166 0 0 0-.316.084c-.1.034-.208.124-.308.162-.1.038-.212.085-.34.089-.08 0-.164.013-.248.03-.084.025-.172.046-.256.072-.088.021-.192.021-.256.072-.584.471-1.236.913-1.976 1.312-.74.395-1.563.76-2.523.938-.24.03-.464.144-.724.144-.12.009-.26 0-.38-.02-.556-.145-.796-.29-1.032-.383-.232-.102-.472-.174-.896-.36-.212-.094-.404-.256-.592-.37-.492-.302-.883-.675-1.36-.786-.467-.106-.727-.496-1.131-.61a1.596 1.596 0 0 0-1.232.067c-.568.259-1.148.641-1.764 1.032-.62.386-1.28.806-2.08 1.074-.195.076-.5.085-.607.161-.22.187-.488.28-.74.31a.84.84 0 0 1-.708-.365c-.016-.026-.188-.072-.232-.06-.484.136-.96-.237-1.328-.48-.724-.466-1.344-.916-1.932-1.2a5.274 5.274 0 0 0-.843-.332 3.25 3.25 0 0 0-.736-.106c-.168-.017-.392.106-.52.05-.28-.114-.308.217-.528.234-.192.026-.404.25-.584.264-.66.05-1.24.552-1.732.985-.464.407-.98.853-1.584 1.04-.584.178-1.215.373-1.931.365a3.199 3.199 0 0 1-1.976-.73c-.472-.387-.872-.773-1.276-1.138-.396-.357-.804-.73-1.164-.951-.136-.06-.252-.2-.396-.22-.068-.018-.136-.048-.208-.035a.491.491 0 0 0-.204.102c-.047.03-.168.017-.26.009a1.315 1.315 0 0 0-.347-.022.896.896 0 0 0-.384.068 1.311 1.311 0 0 0-.368.212l-.36.272c-.2.14-.424.238-.592.484-.124.178-.456.302-.796.357-.672.114-1.372.25-2.156.62a4.737 4.737 0 0 1-1.131.356c-.388.09-.864.09-1.308 0-.376-.093-.704-.255-1.092-.399-.368-.127-.764-.598-.94-.95-.288-.548-.576-1.003-.988-1.21-.136-.069-.248-.15-.336-.2-.084-.047-.356-.098-.572-.09a2.369 2.369 0 0 0-.704.128c-.487.165-.992.45-1.5.781-.243.161-.483.378-.783.37-.06.292-.364.415-.604.556-.368.212-.78.352-1.196.522a8.139 8.139 0 0 1-1.636.51c-.292.05-.624-.026-.928-.15-.3-.127-.596-.297-.883-.42-.112-.046-.22-.293-.332-.395-.484-.42-.728-1.04-1.212-1.086-.04-.005-.104-.064-.12-.102a.634.634 0 0 0-.2-.289c-.088-.055-.192-.085-.288-.115-.104-.012-.212.013-.308.017-.104.017-.212.068-.312.085-.444.132-1.028.132-1.592.425-.636.335-1.292.836-2.052 1.048-.647.175-1.34.378-2.1.323-.187-.013-.375-.025-.56-.093-.183-.055-.371-.098-.543-.191a3.495 3.495 0 0 1-.9-.65c-.516-.505-.896-1.031-1.308-1.422-.408-.4-.823-.611-1.284-.624a1.4 1.4 0 0 0-.603.132c-.204.08-.404.195-.616.31-.468.25-.968.56-1.464.9-.468.322-.948.674-1.472.989-.244.144-.492.386-.8.335-.064-.009-.228.06-.288.115a1.69 1.69 0 0 1-1.647.407c-.172-.042-.432-.017-.632-.085-.548-.182-1.032-.25-1.48-.467-.412-.204-.688-.645-1.116-.632-.06 0-.208-.106-.24-.17a.945.945 0 0 0-.672-.544c-.264-.063-.5-.025-.68-.046-.02 0-.04-.009-.068-.03-.024-.008-.06-.034-.108-.06-.016.086-.036.124-.068.153a.263.263 0 0 1-.136.068c-.108.043-.236.06-.304.157-.192.26-.368.565-.631.858a18.84 18.84 0 0 1-.836.879c-.152.14-.316.276-.524.399a2.64 2.64 0 0 1-.692.289c-.48.123-.932.127-1.376.144-.3.021-.844-.123-1.056-.467-.036-.064-.196-.14-.3-.191a2.41 2.41 0 0 1-.992-.934C.5 3.894.447 3.503.551 3.317c.12-.221.36-.327.584-.378.112-.021.308.174.484.246.292.132.612.157.88.268.316.127.64.348 1.028.407l.004-.008Z" fill="#587BF6"/></svg>