<svg width="48" height="48" viewBox="0 0 48 48" fill="none" xmlns="http://www.w3.org/2000/svg">
<path d="M45.0305 45.9807L3.36159 46.088L2.95503 44.6527L2.13599 43.7831L2.72543 40.0743L3.07263 14.2172H45.6894V45.3199C45.6894 45.6842 45.3945 45.9797 45.0304 45.9807H45.0305Z" fill="#FEF9ED"/>
<path d="M45.9085 14.5488H2.93555L3.00451 4.9638L5.24211 3.53308H43.716L45.9085 4.94444V14.5488Z" fill="#545BFE"/>
<path d="M4.03979 4.3278L43.0665 4.08124L44.9518 5.26828V14.7158H45.5918V5.11148L43.3993 3.70012L5.2422 3.53308" fill="#FEF9ED"/>
<path d="M3.55019 14.6609C3.79131 14.6814 4.00107 14.7096 4.28155 14.7211C6.27691 14.803 8.29739 14.8585 10.3622 14.8604C11.3134 14.8612 12.2644 14.8723 13.2057 14.8835C14.8284 14.9027 16.4598 14.9086 18.0686 14.8995C25.0992 14.8597 32.1312 14.8299 39.1592 14.7669C41.4604 14.7491 43.7632 14.7313 46.0734 14.7136C46.0571 11.4435 46.0406 8.16413 46.0241 4.88141C45.2675 4.39725 44.5078 3.91117 43.748 3.42509C42.1412 3.42749 40.5299 3.42989 38.9182 3.43213C35.607 3.43389 32.2958 3.45325 28.9828 3.43885C25.8601 3.42525 22.736 3.46989 19.6102 3.42269C18.5812 3.40717 17.536 3.39853 16.4945 3.39549C14.9024 3.39085 13.3151 3.35901 11.719 3.37453C11.4739 3.37693 11.226 3.37869 10.9817 3.37581C9.30699 3.35581 7.63115 3.33229 5.96091 3.37949C5.70939 3.38621 5.45323 3.39325 5.20539 3.39981C5.14459 3.43869 5.08411 3.47741 5.02411 3.51565C4.97483 3.54813 4.92603 3.58029 4.87787 3.61213C4.78251 3.67741 4.68939 3.74109 4.59947 3.80253C4.42155 3.92813 4.26043 4.05085 4.12667 4.16877C3.86971 4.39517 3.92107 4.41565 4.35131 4.19101C4.65355 4.03021 4.96459 3.86477 5.28651 3.69341C5.31947 3.69693 5.43595 3.70013 5.53051 3.70301C5.62827 3.70541 5.72731 3.70781 5.82635 3.71021C7.83963 3.75021 9.86923 3.72397 11.8899 3.73069C13.6945 3.73661 15.5043 3.75229 17.3168 3.74237C18.0655 3.73821 18.8465 3.74669 19.6062 3.75853C21.0067 3.78045 22.406 3.79837 23.8144 3.79421C23.9977 3.79373 24.1884 3.78893 24.3633 3.79501C26.0878 3.85549 27.8456 3.82045 29.5851 3.83677C30.9233 3.84941 32.2763 3.87565 33.6268 3.85085C33.7462 3.84861 33.8747 3.85149 33.9923 3.85613C34.9256 3.89293 35.8867 3.87485 36.8276 3.88221C38.902 3.89837 40.9836 3.87405 43.0667 3.87661C43.2491 3.87693 43.4316 3.87725 43.6147 3.87773C44.2616 4.29677 44.9091 4.71613 45.5572 5.13581L45.5569 7.21965C45.5616 7.97821 45.5663 8.73677 45.571 9.49485C45.5739 10.2261 45.5766 10.9608 45.5795 11.6925C45.5777 12.5321 45.576 13.3728 45.5743 14.2144C45.331 14.2153 45.087 14.2163 44.843 14.2173C40.2729 14.2504 35.6939 14.2489 31.1332 14.3203C29.5308 14.3454 27.9113 14.3267 26.2988 14.3246C24.1185 14.3219 21.9339 14.332 19.7568 14.3518C15.4649 14.378 11.1665 14.4045 6.87547 14.4307L4.20475 14.4462C4.02299 14.4475 3.81035 14.4472 3.66907 14.4616C3.39579 14.4896 2.95275 14.5035 2.93595 14.5606C2.92187 14.6089 3.27995 14.6376 3.55019 14.6606V14.6609Z" fill="#1C1F58"/>
<path d="M45.6315 4.98897C45.5228 4.96849 45.4283 4.94033 45.302 4.92881C44.403 4.84689 43.4926 4.79121 42.5624 4.78945C42.1337 4.78865 41.7052 4.77761 41.2812 4.76641C40.55 4.74721 39.815 4.74129 39.0902 4.75041C35.9225 4.79025 32.7542 4.82001 29.5876 4.88305C26.0246 4.95409 22.4548 4.99601 18.8827 5.00017C17.3908 5.00193 15.8988 5.02129 14.4062 5.00689C12.9993 4.99329 11.5916 5.03793 10.1832 4.99073C9.71948 4.97521 9.2486 4.96657 8.77931 4.96353C8.06204 4.95889 7.34683 4.92705 6.62763 4.94273C6.51723 4.94513 6.40555 4.94689 6.29547 4.94401C5.54091 4.92401 4.78587 4.90049 4.03323 4.94769C3.70971 4.96801 3.36779 4.97761 3.13099 5.07553C2.97931 5.13825 2.99451 5.18209 3.21275 5.20977C3.45819 5.24081 3.71467 5.26705 3.97259 5.27857C4.87963 5.31857 5.79419 5.29233 6.70459 5.29905C7.51771 5.30497 8.33308 5.32065 9.14972 5.31073C9.48716 5.30657 9.839 5.31505 10.1812 5.32689C10.8123 5.34881 11.4427 5.36673 12.0772 5.36257C12.1598 5.36209 12.2459 5.35729 12.3246 5.36337C13.1016 5.42385 13.8936 5.38881 14.6772 5.40513C15.2801 5.41777 15.8897 5.44401 16.4984 5.41921C16.5521 5.41697 16.61 5.41985 16.663 5.42449C17.0835 5.46129 17.5166 5.44321 17.9406 5.45057C18.8752 5.46673 19.8131 5.44241 20.7516 5.44497C21.923 5.44817 23.0974 5.46641 24.2694 5.43857C24.5988 5.43073 24.9299 5.43281 25.2595 5.43009C25.8476 5.42529 26.4369 5.44177 27.0264 5.43233C29.0854 5.39921 31.1486 5.40065 33.2035 5.32929C33.9254 5.30433 34.6552 5.32289 35.3817 5.32481C36.3641 5.32753 37.3484 5.31745 38.3294 5.29761C40.263 5.25857 42.2 5.25761 44.1332 5.21873C44.5344 5.21377 44.9355 5.20945 45.3366 5.20321C45.4185 5.20193 45.5144 5.20225 45.578 5.18785C45.7012 5.15985 45.9008 5.14593 45.9084 5.08881C45.9148 5.04049 45.7534 5.01185 45.6316 4.98881L45.6315 4.98897Z" fill="#1C1F58"/>
<path d="M40.2915 12.0004C41.4309 12.0004 42.3547 11.0767 42.3547 9.93722C42.3547 8.79775 41.4309 7.87402 40.2915 7.87402C39.152 7.87402 38.2283 8.79775 38.2283 9.93722C38.2283 11.0767 39.152 12.0004 40.2915 12.0004Z" fill="#1C1F58"/>
<path d="M41.4359 6.41276C41.4359 8.05836 41.55 9.73756 41.2178 10.5395C41.0417 10.9648 40.6785 10.8644 40.2769 10.9728C39.8705 11.0824 39.4749 10.8051 39.3773 10.4766C39.1175 9.60172 39.1178 8.18492 39.1178 6.41292C39.1178 4.65676 39.0922 3.00476 39.4621 2.24284C39.6226 1.91228 39.8109 1.86716 40.2769 1.85292C40.6391 1.84188 41.0668 1.90652 41.2426 2.3294C41.5757 3.13052 41.4359 4.76444 41.4359 6.41276Z" fill="#FEF9ED"/>
<path d="M41.5488 6.27842C41.5696 6.22578 41.5979 6.18002 41.6098 6.1189C41.6954 5.68354 41.7627 5.24306 41.7717 4.78706C41.7759 4.57714 41.7895 4.36658 41.7992 4.15634C41.8163 3.7941 41.8133 3.42482 41.7637 3.05218C41.732 2.84738 41.7 2.64242 41.6315 2.42914C41.6184 2.37698 41.5933 2.32178 41.5743 2.26866C41.557 2.21826 41.5277 2.15618 41.4949 2.09506C41.4269 1.97458 41.3296 1.86242 41.2155 1.77858C40.9834 1.6077 40.7224 1.56002 40.4981 1.54898C40.385 1.54338 40.272 1.5493 40.1743 1.55602C40.0717 1.56354 39.965 1.57202 39.8427 1.59858C39.7235 1.62386 39.5749 1.6773 39.4559 1.78162C39.337 1.88418 39.2695 2.00434 39.2194 2.10882C39.1247 2.31906 39.0751 2.52402 39.0349 2.72674C38.9637 3.13106 38.9426 3.52594 38.9352 3.91794C38.924 4.79906 38.9658 5.66722 38.9835 6.53698C39.0059 7.4069 39.0099 8.27874 39.0714 9.15362C39.0991 9.51874 39.1412 9.88482 39.225 10.2469C39.2444 10.3383 39.2701 10.4258 39.2973 10.5186C39.3303 10.6179 39.384 10.7071 39.4501 10.7839C39.5826 10.937 39.7655 11.0448 39.9683 11.0815C40.0639 11.0987 40.1634 11.0959 40.2586 11.0759C40.3522 11.0552 40.4183 11.0373 40.5047 11.0251C40.6672 10.9963 40.8522 10.9914 41.0325 10.8922C41.121 10.8426 41.1951 10.7648 41.2442 10.6808C41.2963 10.5954 41.3219 10.5096 41.3536 10.4258C41.4074 10.2557 41.4512 10.0839 41.4856 9.9117C41.5349 9.68498 41.5608 9.45234 41.5746 9.2213C41.596 8.86834 41.6295 8.51714 41.6122 8.1653C41.6093 8.11122 41.6072 8.05666 41.6096 8.0029C41.6261 7.63378 41.6429 7.26562 41.592 6.90018C41.5698 6.7429 41.5597 6.57714 41.4615 6.46194C41.3984 6.38818 41.3546 6.39522 41.3274 6.5021C41.2968 6.6221 41.2709 6.74786 41.261 6.87394C41.2253 7.31778 41.2605 7.76306 41.2562 8.20482C41.252 8.59922 41.2338 8.99282 41.2179 9.38114C41.2112 9.54146 41.1887 9.7077 41.1531 9.86274C41.1234 10.0071 41.0836 10.1451 41.0404 10.2755C41.0188 10.3383 40.9914 10.405 40.969 10.4557C40.9472 10.5047 40.9223 10.5343 40.8984 10.5584C40.8861 10.5715 40.8741 10.5856 40.8531 10.589C40.7639 10.6082 40.5835 10.6115 40.3672 10.6467C40.3131 10.656 40.2578 10.6683 40.2015 10.6831C40.1715 10.6896 40.1467 10.6951 40.1186 10.6968C40.064 10.7002 40.0077 10.6914 39.9549 10.6685C39.8733 10.6341 39.8015 10.5695 39.7523 10.5007C39.7277 10.4661 39.7106 10.4306 39.6978 10.3987C39.6925 10.3903 39.6811 10.3482 39.6714 10.3183L39.6387 10.2223C39.6314 10.1991 39.6287 10.1728 39.628 10.1485C39.6231 9.95634 39.5752 9.76258 39.5607 9.56386C39.5266 9.1285 39.4847 8.68002 39.4749 8.22802C39.465 7.66322 39.4832 7.09282 39.4552 6.52178C39.4474 6.36146 39.4493 6.19954 39.4464 6.03906C39.4415 5.7525 39.4579 5.4661 39.4504 5.1805C39.4375 4.68178 39.4399 4.18482 39.4629 3.69554C39.4759 3.45154 39.4949 3.20962 39.5259 2.97426C39.5571 2.74018 39.6029 2.5085 39.6813 2.31586C39.7088 2.25058 39.7408 2.19794 39.7767 2.1677C39.8119 2.1365 39.8572 2.11522 39.925 2.10162C40.0548 2.0757 40.2487 2.07394 40.4003 2.07666C40.6125 2.08306 40.8029 2.13058 40.9223 2.2381C40.9828 2.2949 41.0272 2.35698 41.0648 2.4549C41.1058 2.5509 41.1378 2.65666 41.1652 2.7653C41.22 2.97954 41.2501 3.20786 41.2701 3.43762C41.2914 3.66754 41.3008 3.90082 41.3072 4.13458L41.3279 5.54578L41.3349 6.13362C41.336 6.17362 41.3354 6.2205 41.3498 6.2517C41.3775 6.31202 41.3909 6.40946 41.448 6.41314C41.4962 6.41618 41.5253 6.33778 41.5487 6.27874L41.5488 6.27842Z" fill="#1C1F58"/>
<path d="M41.5488 6.27842C41.5696 6.22578 41.5979 6.18002 41.6098 6.1189C41.6954 5.68354 41.7627 5.24306 41.7717 4.78706C41.7759 4.57714 41.7895 4.36658 41.7992 4.15634C41.8163 3.7941 41.8133 3.42482 41.7637 3.05218C41.732 2.84738 41.7 2.64242 41.6315 2.42914C41.6184 2.37698 41.5933 2.32178 41.5743 2.26866C41.557 2.21826 41.5277 2.15618 41.4949 2.09506C41.4269 1.97458 41.3296 1.86242 41.2155 1.77858C40.9834 1.6077 40.7224 1.56002 40.4981 1.54898C40.385 1.54338 40.272 1.5493 40.1743 1.55602C40.0717 1.56354 39.965 1.57202 39.8427 1.59858C39.7235 1.62386 39.5749 1.6773 39.4559 1.78162C39.337 1.88418 39.2695 2.00434 39.2194 2.10882C39.1247 2.31906 39.0751 2.52402 39.0349 2.72674C38.9637 3.13106 38.9426 3.52594 38.9352 3.91794C38.924 4.79906 38.9658 5.66722 38.9835 6.53698C39.0059 7.4069 39.0099 8.27874 39.0714 9.15362C39.0991 9.51874 39.1412 9.88482 39.225 10.2469C39.2444 10.3383 39.2701 10.4258 39.2973 10.5186C39.3303 10.6179 39.384 10.7071 39.4501 10.7839C39.5826 10.937 39.7655 11.0448 39.9683 11.0815C40.0639 11.0987 40.1634 11.0959 40.2586 11.0759C40.3522 11.0552 40.4183 11.0373 40.5047 11.0251C40.6672 10.9963 40.8522 10.9914 41.0325 10.8922C41.121 10.8426 41.1951 10.7648 41.2442 10.6808C41.2963 10.5954 41.3219 10.5096 41.3536 10.4258C41.4074 10.2557 41.4512 10.0839 41.4856 9.9117C41.5349 9.68498 41.5608 9.45234 41.5746 9.2213C41.596 8.86834 41.6295 8.51714 41.6122 8.1653C41.6093 8.11122 41.6072 8.05666 41.6096 8.0029C41.6261 7.63378 41.6429 7.26562 41.592 6.90018C41.5698 6.7429 41.5597 6.57714 41.4615 6.46194C41.3984 6.38818 41.3546 6.39522 41.3274 6.5021C41.2968 6.6221 41.2709 6.74786 41.261 6.87394C41.2253 7.31778 41.2605 7.76306 41.2562 8.20482C41.252 8.59922 41.2338 8.99282 41.2179 9.38114C41.2112 9.54146 41.1887 9.7077 41.1531 9.86274C41.1234 10.0071 41.0836 10.1451 41.0404 10.2755C41.0188 10.3383 40.9914 10.405 40.969 10.4557C40.9472 10.5047 40.9223 10.5343 40.8984 10.5584C40.8861 10.5715 40.8741 10.5856 40.8531 10.589C40.7639 10.6082 40.5835 10.6115 40.3672 10.6467C40.3131 10.656 40.2578 10.6683 40.2015 10.6831C40.1715 10.6896 40.1467 10.6951 40.1186 10.6968C40.064 10.7002 40.0077 10.6914 39.9549 10.6685C39.8733 10.6341 39.8015 10.5695 39.7523 10.5007C39.7277 10.4661 39.7106 10.4306 39.6978 10.3987C39.6925 10.3903 39.6811 10.3482 39.6714 10.3183L39.6387 10.2223C39.6314 10.1991 39.6287 10.1728 39.628 10.1485C39.6231 9.95634 39.5752 9.76258 39.5607 9.56386C39.5266 9.1285 39.4847 8.68002 39.4749 8.22802C39.465 7.66322 39.4832 7.09282 39.4552 6.52178C39.4474 6.36146 39.4493 6.19954 39.4464 6.03906C39.4415 5.7525 39.4579 5.4661 39.4504 5.1805C39.4375 4.68178 39.4399 4.18482 39.4629 3.69554C39.4759 3.45154 39.4949 3.20962 39.5259 2.97426C39.5571 2.74018 39.6029 2.5085 39.6813 2.31586C39.7088 2.25058 39.7408 2.19794 39.7767 2.1677C39.8119 2.1365 39.8572 2.11522 39.925 2.10162C40.0548 2.0757 40.2487 2.07394 40.4003 2.07666C40.6125 2.08306 40.8029 2.13058 40.9223 2.2381C40.9828 2.2949 41.0272 2.35698 41.0648 2.4549C41.1058 2.5509 41.1378 2.65666 41.1652 2.7653C41.22 2.97954 41.2501 3.20786 41.2701 3.43762C41.2914 3.66754 41.3008 3.90082 41.3072 4.13458L41.3279 5.54578L41.3349 6.13362C41.336 6.17362 41.3354 6.2205 41.3498 6.2517C41.3775 6.31202 41.3909 6.40946 41.448 6.41314C41.4962 6.41618 41.5253 6.33778 41.5487 6.27874L41.5488 6.27842Z" fill="#1C1F58"/>
<path d="M29.9023 12.0004C31.0418 12.0004 31.9655 11.0767 31.9655 9.93722C31.9655 8.79775 31.0418 7.87402 29.9023 7.87402C28.7628 7.87402 27.8391 8.79775 27.8391 9.93722C27.8391 11.0767 28.7628 12.0004 29.9023 12.0004Z" fill="#1C1F58"/>
<path d="M31.047 6.41276C31.047 8.05836 31.1611 9.73756 30.8289 10.5395C30.6527 10.9648 30.2895 10.8644 29.8879 10.9728C29.4815 11.0824 29.086 10.8051 28.9884 10.4766C28.7286 9.60172 28.7289 8.18492 28.7289 6.41292C28.7289 4.65676 28.7033 3.00476 29.0732 2.24284C29.2337 1.91228 29.422 1.86716 29.8879 1.85292C30.2502 1.84188 30.6779 1.90652 30.8537 2.3294C31.1868 3.13052 31.047 4.76444 31.047 6.41276Z" fill="#FEF9ED"/>
<path d="M31.1599 6.27842C31.1807 6.22578 31.209 6.18002 31.2209 6.1189C31.3065 5.68354 31.3738 5.24306 31.3828 4.78706C31.387 4.57714 31.4006 4.36658 31.4103 4.15634C31.4274 3.7941 31.4244 3.42482 31.3748 3.05218C31.3431 2.84738 31.3111 2.64242 31.2426 2.42914C31.2295 2.37698 31.2044 2.32178 31.1854 2.26866C31.1681 2.21826 31.1388 2.15618 31.106 2.09506C31.038 1.97458 30.9407 1.86242 30.8266 1.77858C30.5945 1.6077 30.3335 1.56002 30.1092 1.54898C29.9961 1.54338 29.8831 1.5493 29.7854 1.55602C29.6828 1.56354 29.5761 1.57202 29.4538 1.59858C29.3346 1.62386 29.186 1.6773 29.067 1.78162C28.9481 1.88418 28.8806 2.00434 28.8305 2.10882C28.7358 2.31906 28.6862 2.52402 28.646 2.72674C28.5748 3.13106 28.5537 3.52594 28.5463 3.91794C28.5351 4.79906 28.5769 5.66722 28.5946 6.53698C28.617 7.4069 28.621 8.27874 28.6825 9.15362C28.7102 9.51874 28.7522 9.88482 28.8361 10.2469C28.8554 10.3383 28.8812 10.4258 28.9084 10.5186C28.9414 10.6179 28.9951 10.7071 29.0612 10.7839C29.1937 10.937 29.3766 11.0448 29.5794 11.0815C29.675 11.0987 29.7745 11.0959 29.8697 11.0759C29.9633 11.0552 30.0294 11.0373 30.1158 11.0251C30.2783 10.9963 30.4633 10.9914 30.6436 10.8922C30.7321 10.8426 30.8062 10.7648 30.8553 10.6808C30.9074 10.5954 30.933 10.5096 30.9647 10.4258C31.0185 10.2557 31.0623 10.0839 31.0967 9.9117C31.146 9.68498 31.1719 9.45234 31.1857 9.2213C31.2071 8.86834 31.2406 8.51714 31.2233 8.1653C31.2204 8.11122 31.2183 8.05666 31.2207 8.0029C31.2372 7.63378 31.254 7.26562 31.2031 6.90018C31.1809 6.7429 31.1708 6.57714 31.0724 6.46194C31.0094 6.38818 30.9655 6.39522 30.9383 6.5021C30.9078 6.6221 30.8818 6.74786 30.8719 6.87394C30.8362 7.31778 30.8714 7.76306 30.8671 8.20482C30.863 8.59922 30.8447 8.99282 30.8289 9.38114C30.8222 9.54146 30.7996 9.7077 30.7641 9.86274C30.7343 10.0071 30.6945 10.1451 30.6513 10.2755C30.6297 10.3383 30.6023 10.405 30.5799 10.4557C30.5582 10.5047 30.5332 10.5343 30.5094 10.5584C30.497 10.5715 30.485 10.5856 30.4641 10.589C30.3748 10.6082 30.1945 10.6115 29.9782 10.6467C29.9241 10.656 29.8687 10.6683 29.8124 10.6831C29.7825 10.6896 29.7577 10.6951 29.7295 10.6968C29.675 10.7002 29.6186 10.6914 29.5658 10.6685C29.4842 10.6341 29.4124 10.5695 29.3633 10.5007C29.3386 10.4661 29.3215 10.4306 29.3087 10.3987C29.3034 10.3903 29.2921 10.3482 29.2823 10.3183L29.2497 10.2223C29.2423 10.1991 29.2396 10.1728 29.239 10.1485C29.234 9.95634 29.1862 9.76258 29.1716 9.56386C29.1375 9.1285 29.0956 8.68002 29.0858 8.22802C29.0759 7.66322 29.0942 7.09282 29.0662 6.52178C29.0583 6.36146 29.0602 6.19954 29.0574 6.03906C29.0524 5.7525 29.0689 5.4661 29.0614 5.1805C29.0484 4.68178 29.0508 4.18482 29.0738 3.69554C29.0868 3.45154 29.1058 3.20962 29.1369 2.97426C29.1681 2.74018 29.2138 2.5085 29.2922 2.31586C29.3198 2.25058 29.3518 2.19794 29.3876 2.1677C29.4228 2.1365 29.4681 2.11522 29.5359 2.10162C29.6657 2.0757 29.8596 2.07394 30.0113 2.07666C30.2234 2.08306 30.4138 2.13058 30.5332 2.2381C30.5937 2.2949 30.6382 2.35698 30.6758 2.4549C30.7167 2.5509 30.7487 2.65666 30.7761 2.7653C30.831 2.97954 30.861 3.20786 30.881 3.43762C30.9023 3.66754 30.9118 3.90082 30.9182 4.13458L30.9388 5.54578L30.9458 6.13362C30.947 6.17362 30.9463 6.2205 30.9607 6.2517C30.9884 6.31202 31.0018 6.40946 31.059 6.41314C31.1073 6.41618 31.1362 6.33778 31.1596 6.27874L31.1599 6.27842Z" fill="#1C1F58"/>
<path d="M31.1599 6.27842C31.1807 6.22578 31.209 6.18002 31.2209 6.1189C31.3065 5.68354 31.3738 5.24306 31.3828 4.78706C31.387 4.57714 31.4006 4.36658 31.4103 4.15634C31.4274 3.7941 31.4244 3.42482 31.3748 3.05218C31.3431 2.84738 31.3111 2.64242 31.2426 2.42914C31.2295 2.37698 31.2044 2.32178 31.1854 2.26866C31.1681 2.21826 31.1388 2.15618 31.106 2.09506C31.038 1.97458 30.9407 1.86242 30.8266 1.77858C30.5945 1.6077 30.3335 1.56002 30.1092 1.54898C29.9961 1.54338 29.8831 1.5493 29.7854 1.55602C29.6828 1.56354 29.5761 1.57202 29.4538 1.59858C29.3346 1.62386 29.186 1.6773 29.067 1.78162C28.9481 1.88418 28.8806 2.00434 28.8305 2.10882C28.7358 2.31906 28.6862 2.52402 28.646 2.72674C28.5748 3.13106 28.5537 3.52594 28.5463 3.91794C28.5351 4.79906 28.5769 5.66722 28.5946 6.53698C28.617 7.4069 28.621 8.27874 28.6825 9.15362C28.7102 9.51874 28.7522 9.88482 28.8361 10.2469C28.8554 10.3383 28.8812 10.4258 28.9084 10.5186C28.9414 10.6179 28.9951 10.7071 29.0612 10.7839C29.1937 10.937 29.3766 11.0448 29.5794 11.0815C29.675 11.0987 29.7745 11.0959 29.8697 11.0759C29.9633 11.0552 30.0294 11.0373 30.1158 11.0251C30.2783 10.9963 30.4633 10.9914 30.6436 10.8922C30.7321 10.8426 30.8062 10.7648 30.8553 10.6808C30.9074 10.5954 30.933 10.5096 30.9647 10.4258C31.0185 10.2557 31.0623 10.0839 31.0967 9.9117C31.146 9.68498 31.1719 9.45234 31.1857 9.2213C31.2071 8.86834 31.2406 8.51714 31.2233 8.1653C31.2204 8.11122 31.2183 8.05666 31.2207 8.0029C31.2372 7.63378 31.254 7.26562 31.2031 6.90018C31.1809 6.7429 31.1708 6.57714 31.0724 6.46194C31.0094 6.38818 30.9655 6.39522 30.9383 6.5021C30.9078 6.6221 30.8818 6.74786 30.8719 6.87394C30.8362 7.31778 30.8714 7.76306 30.8671 8.20482C30.863 8.59922 30.8447 8.99282 30.8289 9.38114C30.8222 9.54146 30.7996 9.7077 30.7641 9.86274C30.7343 10.0071 30.6945 10.1451 30.6513 10.2755C30.6297 10.3383 30.6023 10.405 30.5799 10.4557C30.5582 10.5047 30.5332 10.5343 30.5094 10.5584C30.497 10.5715 30.485 10.5856 30.4641 10.589C30.3748 10.6082 30.1945 10.6115 29.9782 10.6467C29.9241 10.656 29.8687 10.6683 29.8124 10.6831C29.7825 10.6896 29.7577 10.6951 29.7295 10.6968C29.675 10.7002 29.6186 10.6914 29.5658 10.6685C29.4842 10.6341 29.4124 10.5695 29.3633 10.5007C29.3386 10.4661 29.3215 10.4306 29.3087 10.3987C29.3034 10.3903 29.2921 10.3482 29.2823 10.3183L29.2497 10.2223C29.2423 10.1991 29.2396 10.1728 29.239 10.1485C29.234 9.95634 29.1862 9.76258 29.1716 9.56386C29.1375 9.1285 29.0956 8.68002 29.0858 8.22802C29.0759 7.66322 29.0942 7.09282 29.0662 6.52178C29.0583 6.36146 29.0602 6.19954 29.0574 6.03906C29.0524 5.7525 29.0689 5.4661 29.0614 5.1805C29.0484 4.68178 29.0508 4.18482 29.0738 3.69554C29.0868 3.45154 29.1058 3.20962 29.1369 2.97426C29.1681 2.74018 29.2138 2.5085 29.2922 2.31586C29.3198 2.25058 29.3518 2.19794 29.3876 2.1677C29.4228 2.1365 29.4681 2.11522 29.5359 2.10162C29.6657 2.0757 29.8596 2.07394 30.0113 2.07666C30.2234 2.08306 30.4138 2.13058 30.5332 2.2381C30.5937 2.2949 30.6382 2.35698 30.6758 2.4549C30.7167 2.5509 30.7487 2.65666 30.7761 2.7653C30.831 2.97954 30.861 3.20786 30.881 3.43762C30.9023 3.66754 30.9118 3.90082 30.9182 4.13458L30.9388 5.54578L30.9458 6.13362C30.947 6.17362 30.9463 6.2205 30.9607 6.2517C30.9884 6.31202 31.0018 6.40946 31.059 6.41314C31.1073 6.41618 31.1362 6.33778 31.1596 6.27874L31.1599 6.27842Z" fill="#1C1F58"/>
<path d="M19.5134 12.0004C20.6529 12.0004 21.5766 11.0767 21.5766 9.93722C21.5766 8.79775 20.6529 7.87402 19.5134 7.87402C18.3739 7.87402 17.4502 8.79775 17.4502 9.93722C17.4502 11.0767 18.3739 12.0004 19.5134 12.0004Z" fill="#1C1F58"/>
<path d="M20.6578 6.41276C20.6578 8.05836 20.7719 9.73756 20.4397 10.5395C20.2636 10.9648 19.9004 10.8644 19.4988 10.9728C19.0924 11.0824 18.6969 10.8051 18.5993 10.4766C18.3394 9.60172 18.3397 8.18492 18.3397 6.41292C18.3397 4.65676 18.3141 3.00476 18.6841 2.24284C18.8445 1.91228 19.0329 1.86716 19.4988 1.85292C19.861 1.84188 20.2887 1.90652 20.4645 2.3294C20.7977 3.13052 20.6578 4.76444 20.6578 6.41276Z" fill="#FEF9ED"/>
<path d="M20.771 6.27842C20.7918 6.22578 20.8201 6.18002 20.832 6.1189C20.9176 5.68354 20.9849 5.24306 20.9939 4.78706C20.998 4.57714 21.0116 4.36658 21.0214 4.15634C21.0385 3.7941 21.0355 3.42482 20.9859 3.05218C20.9542 2.84738 20.9222 2.64242 20.8537 2.42914C20.8406 2.37698 20.8155 2.32178 20.7964 2.26866C20.7792 2.21826 20.7499 2.15618 20.7171 2.09506C20.6491 1.97458 20.5518 1.86242 20.4377 1.77858C20.2056 1.6077 19.9446 1.56002 19.7203 1.54898C19.6072 1.54338 19.4942 1.5493 19.3964 1.55602C19.2939 1.56354 19.1872 1.57202 19.0649 1.59858C18.9457 1.62386 18.7971 1.6773 18.678 1.78162C18.5592 1.88418 18.4916 2.00434 18.4416 2.10882C18.3468 2.31906 18.2972 2.52402 18.2571 2.72674C18.1859 3.13106 18.1648 3.52594 18.1574 3.91794C18.1462 4.79906 18.188 5.66722 18.2057 6.53698C18.2281 7.4069 18.2321 8.27874 18.2936 9.15362C18.3212 9.51874 18.3633 9.88482 18.4472 10.2469C18.4665 10.3383 18.4923 10.4258 18.5195 10.5186C18.5524 10.6179 18.6062 10.7071 18.6723 10.7839C18.8048 10.937 18.9876 11.0448 19.1905 11.0815C19.286 11.0987 19.3856 11.0959 19.4808 11.0759C19.5744 11.0552 19.6404 11.0373 19.7268 11.0251C19.8894 10.9963 20.0744 10.9914 20.2547 10.8922C20.3432 10.8426 20.4172 10.7648 20.4664 10.6808C20.5185 10.5954 20.5441 10.5096 20.5758 10.4258C20.6296 10.2557 20.6734 10.0839 20.7078 9.9117C20.7571 9.68498 20.783 9.45234 20.7968 9.2213C20.8182 8.86834 20.8516 8.51714 20.8344 8.1653C20.8315 8.11122 20.8294 8.05666 20.8318 8.0029C20.8483 7.63378 20.8651 7.26562 20.8142 6.90018C20.792 6.7429 20.7819 6.57714 20.6836 6.46194C20.6206 6.38818 20.5768 6.39522 20.5496 6.5021C20.519 6.6221 20.4931 6.74786 20.4832 6.87394C20.4475 7.31778 20.4827 7.76306 20.4784 8.20482C20.4742 8.59922 20.456 8.99282 20.4401 9.38114C20.4334 9.54146 20.4108 9.7077 20.3753 9.86274C20.3456 10.0071 20.3057 10.1451 20.2625 10.2755C20.2409 10.3383 20.2136 10.405 20.1912 10.4557C20.1694 10.5047 20.1444 10.5343 20.1206 10.5584C20.1083 10.5715 20.0963 10.5856 20.0753 10.589C19.986 10.6082 19.8057 10.6115 19.5894 10.6467C19.5353 10.656 19.48 10.6683 19.4236 10.6831C19.3937 10.6896 19.3689 10.6951 19.3408 10.6968C19.2862 10.7002 19.2299 10.6914 19.1771 10.6685C19.0955 10.6341 19.0236 10.5695 18.9745 10.5007C18.9499 10.4661 18.9328 10.4306 18.92 10.3987C18.9147 10.3903 18.9033 10.3482 18.8936 10.3183L18.8609 10.2223C18.8536 10.1991 18.8508 10.1728 18.8502 10.1485C18.8452 9.95634 18.7974 9.76258 18.7828 9.56386C18.7488 9.1285 18.7068 8.68002 18.6971 8.22802C18.6872 7.66322 18.7054 7.09282 18.6774 6.52178C18.6696 6.36146 18.6715 6.19954 18.6686 6.03906C18.6636 5.7525 18.6801 5.4661 18.6726 5.1805C18.6596 4.68178 18.662 4.18482 18.6851 3.69554C18.698 3.45154 18.7171 3.20962 18.7481 2.97426C18.7793 2.74018 18.8251 2.5085 18.9035 2.31586C18.931 2.25058 18.963 2.19794 18.9988 2.1677C19.034 2.1365 19.0793 2.11522 19.1472 2.10162C19.2769 2.0757 19.4708 2.07394 19.6225 2.07666C19.8347 2.08306 20.0251 2.13058 20.1444 2.2381C20.2049 2.2949 20.2494 2.35698 20.287 2.4549C20.328 2.5509 20.36 2.65666 20.3873 2.7653C20.4422 2.97954 20.4723 3.20786 20.4923 3.43762C20.5136 3.66754 20.523 3.90082 20.5294 4.13458L20.55 5.54578L20.5571 6.13362C20.5582 6.17362 20.5576 6.2205 20.572 6.2517C20.5996 6.31202 20.6131 6.40946 20.6702 6.41314C20.7184 6.41618 20.7475 6.33778 20.7708 6.27874L20.771 6.27842Z" fill="#1C1F58"/>
<path d="M20.771 6.27842C20.7918 6.22578 20.8201 6.18002 20.832 6.1189C20.9176 5.68354 20.9849 5.24306 20.9939 4.78706C20.998 4.57714 21.0116 4.36658 21.0214 4.15634C21.0385 3.7941 21.0355 3.42482 20.9859 3.05218C20.9542 2.84738 20.9222 2.64242 20.8537 2.42914C20.8406 2.37698 20.8155 2.32178 20.7964 2.26866C20.7792 2.21826 20.7499 2.15618 20.7171 2.09506C20.6491 1.97458 20.5518 1.86242 20.4377 1.77858C20.2056 1.6077 19.9446 1.56002 19.7203 1.54898C19.6072 1.54338 19.4942 1.5493 19.3964 1.55602C19.2939 1.56354 19.1872 1.57202 19.0649 1.59858C18.9457 1.62386 18.7971 1.6773 18.678 1.78162C18.5592 1.88418 18.4916 2.00434 18.4416 2.10882C18.3468 2.31906 18.2972 2.52402 18.2571 2.72674C18.1859 3.13106 18.1648 3.52594 18.1574 3.91794C18.1462 4.79906 18.188 5.66722 18.2057 6.53698C18.2281 7.4069 18.2321 8.27874 18.2936 9.15362C18.3212 9.51874 18.3633 9.88482 18.4472 10.2469C18.4665 10.3383 18.4923 10.4258 18.5195 10.5186C18.5524 10.6179 18.6062 10.7071 18.6723 10.7839C18.8048 10.937 18.9876 11.0448 19.1905 11.0815C19.286 11.0987 19.3856 11.0959 19.4808 11.0759C19.5744 11.0552 19.6404 11.0373 19.7268 11.0251C19.8894 10.9963 20.0744 10.9914 20.2547 10.8922C20.3432 10.8426 20.4172 10.7648 20.4664 10.6808C20.5185 10.5954 20.5441 10.5096 20.5758 10.4258C20.6296 10.2557 20.6734 10.0839 20.7078 9.9117C20.7571 9.68498 20.783 9.45234 20.7968 9.2213C20.8182 8.86834 20.8516 8.51714 20.8344 8.1653C20.8315 8.11122 20.8294 8.05666 20.8318 8.0029C20.8483 7.63378 20.8651 7.26562 20.8142 6.90018C20.792 6.7429 20.7819 6.57714 20.6836 6.46194C20.6206 6.38818 20.5768 6.39522 20.5496 6.5021C20.519 6.6221 20.4931 6.74786 20.4832 6.87394C20.4475 7.31778 20.4827 7.76306 20.4784 8.20482C20.4742 8.59922 20.456 8.99282 20.4401 9.38114C20.4334 9.54146 20.4108 9.7077 20.3753 9.86274C20.3456 10.0071 20.3057 10.1451 20.2625 10.2755C20.2409 10.3383 20.2136 10.405 20.1912 10.4557C20.1694 10.5047 20.1444 10.5343 20.1206 10.5584C20.1083 10.5715 20.0963 10.5856 20.0753 10.589C19.986 10.6082 19.8057 10.6115 19.5894 10.6467C19.5353 10.656 19.48 10.6683 19.4236 10.6831C19.3937 10.6896 19.3689 10.6951 19.3408 10.6968C19.2862 10.7002 19.2299 10.6914 19.1771 10.6685C19.0955 10.6341 19.0236 10.5695 18.9745 10.5007C18.9499 10.4661 18.9328 10.4306 18.92 10.3987C18.9147 10.3903 18.9033 10.3482 18.8936 10.3183L18.8609 10.2223C18.8536 10.1991 18.8508 10.1728 18.8502 10.1485C18.8452 9.95634 18.7974 9.76258 18.7828 9.56386C18.7488 9.1285 18.7068 8.68002 18.6971 8.22802C18.6872 7.66322 18.7054 7.09282 18.6774 6.52178C18.6696 6.36146 18.6715 6.19954 18.6686 6.03906C18.6636 5.7525 18.6801 5.4661 18.6726 5.1805C18.6596 4.68178 18.662 4.18482 18.6851 3.69554C18.698 3.45154 18.7171 3.20962 18.7481 2.97426C18.7793 2.74018 18.8251 2.5085 18.9035 2.31586C18.931 2.25058 18.963 2.19794 18.9988 2.1677C19.034 2.1365 19.0793 2.11522 19.1472 2.10162C19.2769 2.0757 19.4708 2.07394 19.6225 2.07666C19.8347 2.08306 20.0251 2.13058 20.1444 2.2381C20.2049 2.2949 20.2494 2.35698 20.287 2.4549C20.328 2.5509 20.36 2.65666 20.3873 2.7653C20.4422 2.97954 20.4723 3.20786 20.4923 3.43762C20.5136 3.66754 20.523 3.90082 20.5294 4.13458L20.55 5.54578L20.5571 6.13362C20.5582 6.17362 20.5576 6.2205 20.572 6.2517C20.5996 6.31202 20.6131 6.40946 20.6702 6.41314C20.7184 6.41618 20.7475 6.33778 20.7708 6.27874L20.771 6.27842Z" fill="#1C1F58"/>
<path d="M9.12424 12.0004C10.2637 12.0004 11.1874 11.0767 11.1874 9.93722C11.1874 8.79775 10.2637 7.87402 9.12424 7.87402C7.98476 7.87402 7.06104 8.79775 7.06104 9.93722C7.06104 11.0767 7.98476 12.0004 9.12424 12.0004Z" fill="#1C1F58"/>
<path d="M10.2689 6.41276C10.2689 8.05836 10.383 9.73756 10.0508 10.5395C9.87466 10.9648 9.51146 10.8644 9.10986 10.9728C8.70346 11.0824 8.30794 10.8051 8.21034 10.4766C7.9505 9.60172 7.95082 8.18492 7.95082 6.41292C7.95082 4.65676 7.92522 3.00476 8.29514 2.24284C8.45562 1.91228 8.64394 1.86716 9.10986 1.85292C9.4721 1.84188 9.89978 1.90652 10.0756 2.3294C10.4087 3.13052 10.2689 4.76444 10.2689 6.41276Z" fill="#FEF9ED"/>
<path d="M10.3818 6.27842C10.4026 6.22578 10.431 6.18002 10.4428 6.1189C10.5284 5.68354 10.5958 5.24306 10.6047 4.78706C10.6089 4.57714 10.6225 4.36658 10.6322 4.15634C10.6494 3.7941 10.6463 3.42482 10.5967 3.05218C10.565 2.84738 10.533 2.64242 10.4646 2.42914C10.4514 2.37698 10.4263 2.32178 10.4073 2.26866C10.39 2.21826 10.3607 2.15618 10.3279 2.09506C10.2599 1.97458 10.1626 1.86242 10.0486 1.77858C9.8164 1.6077 9.55544 1.56002 9.33112 1.54898C9.218 1.54338 9.10504 1.5493 9.00728 1.55602C8.90472 1.56354 8.798 1.57202 8.67576 1.59858C8.55656 1.62386 8.40792 1.6773 8.28888 1.78162C8.17 1.88418 8.10248 2.00434 8.0524 2.10882C7.95768 2.31906 7.90808 2.52402 7.86792 2.72674C7.79672 3.13106 7.7756 3.52594 7.76824 3.91794C7.75704 4.79906 7.7988 5.66722 7.81656 6.53698C7.83896 7.4069 7.84296 8.27874 7.9044 9.15362C7.93208 9.51874 7.97416 9.88482 8.058 10.2469C8.07736 10.3383 8.10312 10.4258 8.13032 10.5186C8.16328 10.6179 8.21704 10.7071 8.28312 10.7839C8.4156 10.937 8.59848 11.0448 8.80136 11.0815C8.89688 11.0987 8.9964 11.0959 9.0916 11.0759C9.1852 11.0552 9.25128 11.0373 9.33768 11.0251C9.50024 10.9963 9.6852 10.9914 9.86552 10.8922C9.954 10.8426 10.0281 10.7648 10.0772 10.6808C10.1294 10.5954 10.155 10.5096 10.1866 10.4258C10.2404 10.2557 10.2842 10.0839 10.3186 9.9117C10.3679 9.68498 10.3938 9.45234 10.4076 9.2213C10.429 8.86834 10.4625 8.51714 10.4452 8.1653C10.4423 8.11122 10.4402 8.05666 10.4426 8.0029C10.4591 7.63378 10.4759 7.26562 10.425 6.90018C10.4028 6.7429 10.3927 6.57714 10.2943 6.46194C10.2313 6.38818 10.1874 6.39522 10.1602 6.5021C10.1297 6.6221 10.1038 6.74786 10.0938 6.87394C10.0582 7.31778 10.0934 7.76306 10.089 8.20482C10.0849 8.59922 10.0666 8.99282 10.0508 9.38114C10.0441 9.54146 10.0215 9.7077 9.986 9.86274C9.95624 10.0071 9.9164 10.1451 9.8732 10.2755C9.8516 10.3383 9.82424 10.405 9.80184 10.4557C9.78008 10.5047 9.75512 10.5343 9.73128 10.5584C9.71896 10.5715 9.70696 10.5856 9.686 10.589C9.59672 10.6082 9.4164 10.6115 9.20008 10.6467C9.146 10.656 9.09064 10.6683 9.03432 10.6831C9.0044 10.6896 8.9796 10.6951 8.95144 10.6968C8.89688 10.7002 8.84056 10.6914 8.78776 10.6685C8.70616 10.6341 8.63432 10.5695 8.5852 10.5007C8.56056 10.4661 8.54344 10.4306 8.53064 10.3987C8.52536 10.3903 8.514 10.3482 8.50424 10.3183L8.4716 10.2223C8.46424 10.1991 8.46152 10.1728 8.46088 10.1485C8.45592 9.95634 8.40808 9.76258 8.39352 9.56386C8.35944 9.1285 8.31752 8.68002 8.30776 8.22802C8.29784 7.66322 8.31608 7.09282 8.28808 6.52178C8.28024 6.36146 8.28216 6.19954 8.27928 6.03906C8.27432 5.7525 8.2908 5.4661 8.28328 5.1805C8.27032 4.68178 8.27272 4.18482 8.29576 3.69554C8.30872 3.45154 8.32776 3.20962 8.3588 2.97426C8.39 2.74018 8.43576 2.5085 8.51416 2.31586C8.54168 2.25058 8.57368 2.19794 8.60952 2.1677C8.64472 2.1365 8.69 2.11522 8.75784 2.10162C8.8876 2.0757 9.08152 2.07394 9.2332 2.07666C9.44536 2.08306 9.63576 2.13058 9.75512 2.2381C9.8156 2.2949 9.86008 2.35698 9.89768 2.4549C9.93864 2.5509 9.97064 2.65666 9.998 2.7653C10.0529 2.97954 10.083 3.20786 10.103 3.43762C10.1242 3.66754 10.1337 3.90082 10.1401 4.13458L10.1607 5.54578L10.1678 6.13362C10.1689 6.17362 10.1682 6.2205 10.1826 6.2517C10.2103 6.31202 10.2238 6.40946 10.2809 6.41314C10.3292 6.41618 10.3582 6.33778 10.3815 6.27874L10.3818 6.27842Z" fill="#1C1F58"/>
<path d="M10.3818 6.27842C10.4026 6.22578 10.431 6.18002 10.4428 6.1189C10.5284 5.68354 10.5958 5.24306 10.6047 4.78706C10.6089 4.57714 10.6225 4.36658 10.6322 4.15634C10.6494 3.7941 10.6463 3.42482 10.5967 3.05218C10.565 2.84738 10.533 2.64242 10.4646 2.42914C10.4514 2.37698 10.4263 2.32178 10.4073 2.26866C10.39 2.21826 10.3607 2.15618 10.3279 2.09506C10.2599 1.97458 10.1626 1.86242 10.0486 1.77858C9.8164 1.6077 9.55544 1.56002 9.33112 1.54898C9.218 1.54338 9.10504 1.5493 9.00728 1.55602C8.90472 1.56354 8.798 1.57202 8.67576 1.59858C8.55656 1.62386 8.40792 1.6773 8.28888 1.78162C8.17 1.88418 8.10248 2.00434 8.0524 2.10882C7.95768 2.31906 7.90808 2.52402 7.86792 2.72674C7.79672 3.13106 7.7756 3.52594 7.76824 3.91794C7.75704 4.79906 7.7988 5.66722 7.81656 6.53698C7.83896 7.4069 7.84296 8.27874 7.9044 9.15362C7.93208 9.51874 7.97416 9.88482 8.058 10.2469C8.07736 10.3383 8.10312 10.4258 8.13032 10.5186C8.16328 10.6179 8.21704 10.7071 8.28312 10.7839C8.4156 10.937 8.59848 11.0448 8.80136 11.0815C8.89688 11.0987 8.9964 11.0959 9.0916 11.0759C9.1852 11.0552 9.25128 11.0373 9.33768 11.0251C9.50024 10.9963 9.6852 10.9914 9.86552 10.8922C9.954 10.8426 10.0281 10.7648 10.0772 10.6808C10.1294 10.5954 10.155 10.5096 10.1866 10.4258C10.2404 10.2557 10.2842 10.0839 10.3186 9.9117C10.3679 9.68498 10.3938 9.45234 10.4076 9.2213C10.429 8.86834 10.4625 8.51714 10.4452 8.1653C10.4423 8.11122 10.4402 8.05666 10.4426 8.0029C10.4591 7.63378 10.4759 7.26562 10.425 6.90018C10.4028 6.7429 10.3927 6.57714 10.2943 6.46194C10.2313 6.38818 10.1874 6.39522 10.1602 6.5021C10.1297 6.6221 10.1038 6.74786 10.0938 6.87394C10.0582 7.31778 10.0934 7.76306 10.089 8.20482C10.0849 8.59922 10.0666 8.99282 10.0508 9.38114C10.0441 9.54146 10.0215 9.7077 9.986 9.86274C9.95624 10.0071 9.9164 10.1451 9.8732 10.2755C9.8516 10.3383 9.82424 10.405 9.80184 10.4557C9.78008 10.5047 9.75512 10.5343 9.73128 10.5584C9.71896 10.5715 9.70696 10.5856 9.686 10.589C9.59672 10.6082 9.4164 10.6115 9.20008 10.6467C9.146 10.656 9.09064 10.6683 9.03432 10.6831C9.0044 10.6896 8.9796 10.6951 8.95144 10.6968C8.89688 10.7002 8.84056 10.6914 8.78776 10.6685C8.70616 10.6341 8.63432 10.5695 8.5852 10.5007C8.56056 10.4661 8.54344 10.4306 8.53064 10.3987C8.52536 10.3903 8.514 10.3482 8.50424 10.3183L8.4716 10.2223C8.46424 10.1991 8.46152 10.1728 8.46088 10.1485C8.45592 9.95634 8.40808 9.76258 8.39352 9.56386C8.35944 9.1285 8.31752 8.68002 8.30776 8.22802C8.29784 7.66322 8.31608 7.09282 8.28808 6.52178C8.28024 6.36146 8.28216 6.19954 8.27928 6.03906C8.27432 5.7525 8.2908 5.4661 8.28328 5.1805C8.27032 4.68178 8.27272 4.18482 8.29576 3.69554C8.30872 3.45154 8.32776 3.20962 8.3588 2.97426C8.39 2.74018 8.43576 2.5085 8.51416 2.31586C8.54168 2.25058 8.57368 2.19794 8.60952 2.1677C8.64472 2.1365 8.69 2.11522 8.75784 2.10162C8.8876 2.0757 9.08152 2.07394 9.2332 2.07666C9.44536 2.08306 9.63576 2.13058 9.75512 2.2381C9.8156 2.2949 9.86008 2.35698 9.89768 2.4549C9.93864 2.5509 9.97064 2.65666 9.998 2.7653C10.0529 2.97954 10.083 3.20786 10.103 3.43762C10.1242 3.66754 10.1337 3.90082 10.1401 4.13458L10.1607 5.54578L10.1678 6.13362C10.1689 6.17362 10.1682 6.2205 10.1826 6.2517C10.2103 6.31202 10.2238 6.40946 10.2809 6.41314C10.3292 6.41618 10.3582 6.33778 10.3815 6.27874L10.3818 6.27842Z" fill="#1C1F58"/>
<path d="M45.5732 14.8354C45.551 15.0781 45.5214 15.2893 45.508 15.5717C45.4123 17.5813 45.343 19.6165 45.327 21.6967C45.3197 22.6549 45.302 23.613 45.2846 24.5611C45.2729 25.3786 45.2611 26.1981 45.2493 27.0159L45.2437 27.6288L45.2414 27.9349L45.2404 28.0879C45.2396 28.1111 45.2419 28.085 45.2387 28.1079L45.2262 28.1789C45.1563 28.5685 45.0683 28.9613 44.9769 29.3498C44.7748 30.1995 44.5291 31.0411 44.2452 31.8688C43.9707 32.7003 43.6382 33.5106 43.2908 34.3135C42.5704 35.9067 41.6971 37.4336 40.6356 38.8176C39.568 40.1923 38.3521 41.4727 36.8264 42.3019L36.5432 42.4597C36.4491 42.513 36.3552 42.5664 36.2553 42.6082L35.6654 42.8778C35.2616 43.0317 34.858 43.1909 34.4382 43.3C33.6049 43.5368 32.7433 43.68 31.8748 43.7317C30.8979 43.7859 29.9105 43.7399 28.9443 43.573C28.4475 43.4839 27.9364 43.4307 27.4284 43.4261C27.1734 43.4219 26.9188 43.4354 26.672 43.4453L25.9251 43.476C23.9331 43.5555 21.9404 43.6351 19.947 43.7146C15.9598 43.8608 11.97 44.0072 7.97917 44.1536L3.04333 44.3306C2.72733 44.093 2.49805 43.7402 2.41485 43.3527C2.37037 43.1595 2.36381 42.9586 2.39005 42.7623L2.48653 42.1461C2.62397 41.3248 2.74317 40.4907 2.79741 39.6551C2.85469 38.8654 2.84541 38.0771 2.85901 37.2915L2.88461 34.9314C2.90221 33.3578 2.92397 31.7837 2.96877 30.2096C2.99821 29.1733 3.02093 28.1203 3.03805 27.0714C3.06413 25.4675 3.11757 23.869 3.12349 22.261C3.12445 22.0139 3.12605 21.7643 3.13213 21.5183C3.17469 19.8315 3.22093 18.1435 3.19645 16.4603C3.18589 15.7367 3.18653 14.9722 3.09565 14.4413C3.03757 14.1013 2.99309 14.1346 2.95901 14.6223C2.92061 15.1704 2.88653 15.7439 2.86749 16.3202C2.80029 18.3477 2.79901 20.3928 2.76493 22.4282C2.73453 24.2461 2.69437 26.069 2.67981 27.8949C2.67373 28.6493 2.65469 29.4359 2.63261 30.201C2.59181 31.6115 2.55485 33.021 2.53997 34.4397C2.53805 34.6243 2.54013 34.8167 2.53165 34.9927C2.48973 35.8608 2.47165 36.7378 2.45901 37.6167C2.45149 38.0544 2.45053 38.5 2.43869 38.9303C2.42493 39.3634 2.39693 39.7957 2.35229 40.2251C2.28685 40.8872 2.16973 41.5403 2.05629 42.2146L2.01469 42.4659L1.99405 42.5917C1.98717 42.6319 1.98029 42.6757 1.97405 42.7285C1.94845 42.9282 1.95213 43.1318 1.98525 43.3307C2.05101 43.7283 2.23533 44.1059 2.51149 44.3978C2.56109 44.4485 2.61165 44.5019 2.66669 44.5506C2.69325 44.576 2.72045 44.6003 2.74893 44.6229L2.79053 44.6573L2.81101 44.6744L2.82125 44.6829L2.82189 44.6834V44.6835L3.02349 44.7456H3.02381H3.02525H3.02797H3.03357C3.97453 44.7506 4.94173 44.6997 5.88941 44.6749C7.97853 44.6202 10.0737 44.5248 12.1712 44.4563C14.7889 44.3709 17.4139 44.3002 20.0323 44.1835C20.7684 44.1557 21.5081 44.1279 22.2448 44.1C23.5592 44.0507 24.8764 44.0226 26.1932 43.9685L27.0536 43.9339C27.33 43.9248 27.6073 43.9295 27.8838 43.9488C28.1603 43.968 28.4361 44.0011 28.7099 44.0475L29.1414 44.1192C29.2873 44.1418 29.4339 44.1581 29.58 44.1778C30.1657 44.245 30.7548 44.2741 31.344 44.2698C31.9326 44.2533 32.5222 44.2197 33.1044 44.1237C34.2697 43.9479 35.4137 43.6056 36.4724 43.0853C37.5321 42.5672 38.4992 41.8707 39.3345 41.0517C40.4979 39.8947 41.5217 38.593 42.3795 37.1931C42.9691 36.2528 43.4612 35.2555 43.91 34.2435C44.3603 33.2311 44.7272 32.1847 45.0485 31.1288C45.1301 30.8693 45.202 30.6069 45.2729 30.3442C45.3475 30.0826 45.4107 29.8176 45.4761 29.5535C45.5409 29.289 45.5992 29.0229 45.6547 28.756C45.6814 28.6221 45.7096 28.489 45.7329 28.3536L45.7513 28.2525C45.7568 28.217 45.7633 28.1899 45.7696 28.1339L45.7699 27.9202L45.7758 24.6751C45.7774 22.5115 45.779 20.348 45.7806 18.1864L45.7835 15.4957C45.7835 15.3125 45.7853 15.0984 45.7718 14.9559C45.7457 14.6803 45.7348 14.2339 45.6777 14.2165C45.6296 14.2019 45.5984 14.5624 45.5736 14.8346L45.5732 14.8354Z" fill="#1C1F58"/>
<path d="M45.4841 28.5259C45.4641 28.6816 45.4364 28.8171 45.4254 28.9981C45.3475 30.2861 45.2961 31.5902 45.2987 32.9227C45.2998 33.5366 45.2907 34.1504 45.2815 34.7579C45.2657 35.8053 45.2631 36.8581 45.2754 37.8962L45.3548 44.7019L45.3574 44.9146C45.3561 44.9805 45.3569 45.025 45.3473 45.08C45.3319 45.1848 45.2971 45.2867 45.2444 45.3794C45.1398 45.5653 44.9628 45.7111 44.7588 45.7774L44.6812 45.799L44.6015 45.8128C44.5487 45.8178 44.4972 45.8216 44.4196 45.8219L43.9943 45.8288L43.1438 45.8427L39.7422 45.9032C34.6395 46.0011 29.5265 46.0659 24.4102 46.0858C22.2734 46.0939 20.1366 46.1184 17.9985 46.1069C15.9833 46.096 13.9673 46.1414 11.9502 46.0907C11.2862 46.0736 10.6118 46.064 9.93977 46.0581C8.91241 46.0502 7.88857 46.0123 6.85897 46.0189C6.70089 46.0197 6.54089 46.0197 6.38345 46.0152L4.76489 45.9667L3.96057 45.9445L3.76233 45.9375C3.72425 45.9373 3.71193 45.9325 3.68537 45.9317L3.65001 45.9302H3.64105L3.63657 45.9301H3.63433C3.63369 45.931 3.63433 45.928 3.63241 45.9322L3.61865 45.9664L3.59049 46.0347C3.66889 45.8256 3.61193 45.9767 3.62937 45.9299L3.62889 45.9296L3.62793 45.9291L3.62393 45.927L3.61577 45.9229C3.52361 45.8918 3.44729 45.8197 3.37833 45.7328C3.26441 45.5742 3.19785 45.3555 3.15081 45.1485C3.10425 44.9394 3.07401 44.7374 3.03001 44.5679C3.00249 44.4594 2.98169 44.4064 2.95769 44.4221C2.93433 44.4387 2.90825 44.5231 2.89385 44.6837C2.87833 44.8643 2.87481 45.0515 2.89385 45.2435C2.91401 45.435 2.95369 45.6338 3.04969 45.8266C3.13001 45.9938 3.27209 46.1656 3.47321 46.2504C3.51961 46.2781 3.57785 46.2768 3.63065 46.2891L3.71113 46.3008L3.77337 46.3051L4.02265 46.3218C4.35129 46.3376 4.67849 46.3469 5.00553 46.3525C5.65913 46.3605 6.31321 46.3685 6.96601 46.3763C8.13113 46.3922 9.29929 46.4133 10.4692 46.4072C10.9526 46.4045 11.4566 46.4139 11.947 46.4269C12.851 46.4501 13.7542 46.469 14.6631 46.4648C14.7815 46.4643 14.9046 46.4595 15.0175 46.4658C16.1307 46.5259 17.2651 46.4899 18.3878 46.5048C19.2515 46.5158 20.1247 46.541 20.9964 46.5139C21.0734 46.5115 21.1564 46.5142 21.2323 46.5187C21.8347 46.5544 22.455 46.5344 23.0623 46.5402C24.4012 46.5526 25.7446 46.524 27.0889 46.5219C28.7667 46.519 30.4489 46.5307 32.1276 46.4957C32.5995 46.4858 33.0737 46.4858 33.5459 46.481C34.3884 46.4723 35.2324 46.485 36.0767 46.4714C37.5514 46.4514 39.0275 46.4315 40.5027 46.4115C41.2402 46.3994 41.9777 46.3872 42.7147 46.375L43.8198 46.3507L44.3719 46.3365L44.5106 46.3325C44.5658 46.3277 44.6214 46.3269 44.6759 46.3174C44.7851 46.2999 44.8937 46.2738 44.995 46.2296C45.2818 46.1122 45.5278 45.8997 45.6795 45.6306C45.7561 45.4966 45.8103 45.3501 45.8396 45.1984C45.8532 45.1222 45.8617 45.0456 45.8628 44.9685C45.8652 44.8944 45.8633 44.8358 45.8639 44.7688C45.8649 44.2482 45.8659 43.7267 45.8668 43.2064C45.8651 41.7994 45.8505 40.3896 45.8262 38.9845C45.791 36.2147 45.7559 33.441 45.7207 30.6718L45.6998 28.9483C45.6982 28.831 45.698 28.6938 45.6833 28.6026C45.6548 28.4262 45.6399 28.1403 45.5826 28.1298C45.5343 28.1208 45.5063 28.352 45.4839 28.5264L45.4841 28.5259Z" fill="#1C1F58"/>
<path d="M45.1904 29.9112C45.1315 29.9464 45.0731 29.9697 45.015 30.0179C44.5898 30.351 44.1562 30.6614 43.7025 30.9725C43.6025 31.0496 43.4906 31.1112 43.3835 31.1781C43.2747 31.2429 43.1686 31.3102 43.0557 31.3664C42.8637 31.4673 42.675 31.5737 42.4797 31.6688C42.2881 31.7702 42.0931 31.8645 41.8998 31.9597C41.4771 32.1659 41.0438 32.3549 40.6 32.5133C40.1578 32.6731 39.7058 32.8145 39.2539 32.9094C39.0232 32.9571 38.8189 32.9864 38.5747 33.0009L37.8555 33.0457L36.4105 33.1277C35.3259 33.1899 34.2394 33.2401 33.1518 33.2809L32.336 33.3094L31.928 33.3222L31.724 33.3283C31.6521 33.3329 31.5766 33.3363 31.5045 33.3513C30.915 33.4464 30.4318 33.9619 30.3723 34.5512C30.2993 35.4665 30.2493 36.3686 30.1501 37.275C30.0566 38.1267 30.0166 38.9867 29.851 39.8275C29.8235 39.9653 29.7957 40.1038 29.768 40.243C29.7342 40.3789 29.7067 40.5145 29.6685 40.6483C29.5542 41.0593 29.3627 41.4419 29.1798 41.8293C29.1505 41.8883 29.1201 41.9478 29.0864 42.0043C28.8515 42.3905 28.5821 42.7509 28.3427 43.1353C28.2393 43.3014 28.1163 43.4637 28.0928 43.6352C28.0763 43.7456 28.1142 43.7707 28.2262 43.6873C28.3509 43.5941 28.472 43.4872 28.5806 43.3685C28.9605 42.9481 29.2523 42.4529 29.5177 41.9499C29.7525 41.4992 29.9566 41.0205 30.0576 40.5083C30.1033 40.2955 30.1406 40.0843 30.1835 39.8765C30.2602 39.4945 30.3234 39.1123 30.3622 38.7254C30.367 38.675 30.368 38.6222 30.3792 38.5749C30.4901 38.108 30.5019 37.6221 30.5617 37.1465C30.6077 36.7806 30.6659 36.4115 30.6722 36.0389C30.6728 36.0059 30.6784 35.9709 30.6856 35.939C30.7434 35.6859 30.7465 35.4206 30.7741 35.163C30.7893 35.0209 30.8017 34.8787 30.8126 34.7361C30.8155 34.7029 30.8176 34.6597 30.8209 34.6344L30.8298 34.5573C30.8398 34.5065 30.8507 34.4561 30.8674 34.4072C30.9326 34.2118 31.067 34.0357 31.2457 33.9261C31.3573 33.8584 31.4824 33.815 31.6113 33.799C31.6433 33.7929 31.6765 33.7952 31.7088 33.792L31.8385 33.7901L32.1069 33.787C32.4646 33.7821 32.8224 33.7729 33.1797 33.7521C33.3805 33.7405 33.5824 33.7387 33.7835 33.732C34.1422 33.7201 34.5019 33.7294 34.8614 33.7121C36.1176 33.6502 37.3738 33.6286 38.6314 33.504C38.8486 33.4838 39.0952 33.4545 39.3165 33.4149C39.5424 33.3752 39.7659 33.3304 39.9843 33.2713C40.5763 33.1158 41.1493 32.9014 41.7003 32.6469C42.7838 32.147 43.8329 31.5392 44.7136 30.7235C44.8037 30.6379 44.8904 30.5486 44.9787 30.4614L45.1104 30.3297L45.2315 30.1878C45.2643 30.1491 45.304 30.1048 45.3194 30.0659C45.349 29.9905 45.4195 29.8901 45.3782 29.8507C45.3432 29.8176 45.2563 29.872 45.1906 29.9113L45.1904 29.9112Z" fill="#1C1F58"/>
<path d="M29.8038 40.0438C26.2407 39.4965 23.1836 36.5099 23.1836 30.2328C23.1836 24.4024 26.043 20.415 31.4041 20.415C35.5814 20.415 39.0103 23.252 39.0103 30.2552C39.0103 31.2157 38.9321 32.1205 38.7758 32.9693L36.6871 33.215L32.5322 33.2933C32.6774 32.5896 32.7668 31.6179 32.7668 30.2888C32.7668 26.0781 31.9514 25.4078 31.1361 25.4078C30.209 25.4078 29.3937 26.1674 29.3937 30.1995C29.3937 32.2547 30.0895 33.7611 30.3911 34.4648C30.3911 34.4648 30.3911 34.9392 30.1766 36.9722C30.1095 39.0832 29.8039 40.0442 29.8039 40.0442L29.8038 40.0438Z" fill="#545BFE"/>
<path d="M30.0253 39.5929C30.0827 39.4075 30.1384 39.2462 30.1815 39.0255C30.2579 38.6331 30.3165 38.2363 30.3611 37.8369C30.3835 37.6372 30.4031 37.4369 30.4183 37.2359L30.4296 37.0851L30.4352 37.0095L30.4365 36.9918C30.4365 36.9934 30.4375 36.9886 30.4375 36.9886L30.4423 36.9539L30.4829 36.6559C30.5357 36.258 30.5848 35.8577 30.6261 35.4534C30.6469 35.2511 30.6656 35.0481 30.6813 34.8425L30.6919 34.6873L30.7008 34.5051C30.6983 34.4582 30.7128 34.4078 30.6864 34.3654L30.6378 34.2502L30.5779 34.1102C30.2839 33.4307 30.0573 32.7379 29.9221 32.0315C29.8007 31.4243 29.7479 30.8057 29.7472 30.1887C29.7551 29.5555 29.7703 28.9244 29.8232 28.3068C29.8723 27.8076 29.9403 27.3094 30.0749 26.8492C30.1363 26.6153 30.2319 26.4057 30.3375 26.2153C30.4496 26.0302 30.5875 25.8921 30.7479 25.8148C30.788 25.7945 30.8331 25.7847 30.8749 25.7667C30.9219 25.759 30.9672 25.7471 31.016 25.7412C31.1163 25.7347 31.2203 25.7287 31.3069 25.7495C31.4834 25.7804 31.628 25.8713 31.7557 26.0343C32.0043 26.3694 32.1533 26.8519 32.2471 27.3353C32.4288 28.3153 32.4733 29.3436 32.4805 30.3662C32.4832 30.8775 32.4711 31.3889 32.4413 31.8979C32.4261 32.1523 32.4061 32.4059 32.3791 32.6575C32.3651 32.7833 32.3503 32.9087 32.3323 33.0329C32.3015 33.2489 32.2538 33.479 32.2138 33.6975C32.3611 33.7119 32.5146 33.7212 32.6667 33.7299L32.8963 33.7404L33.0405 33.7447C33.2205 33.7495 33.4 33.7516 33.5794 33.7523C33.9381 33.7531 34.2963 33.747 34.6541 33.7351C35.3714 33.7151 36.0802 33.6547 36.7893 33.6057L37.9597 33.5223L38.5538 33.4804L38.7807 33.4651L38.8933 33.4569C38.9285 33.4515 38.9807 33.4652 38.9733 33.4126L39.0104 33.1883L39.0416 32.9795C39.1437 32.1894 39.1722 31.4027 39.1783 30.6156C39.1832 29.0431 39.0451 27.4526 38.597 25.9308C38.4888 25.5499 38.3499 25.178 38.2008 24.8107C38.0392 24.4486 37.8725 24.0875 37.6637 23.7486C37.4603 23.4075 37.2351 23.0782 36.9775 22.7745C36.724 22.4679 36.4443 22.182 36.1378 21.9276C35.5315 21.4102 34.8239 21.0172 34.0759 20.7495C33.7003 20.6191 33.3151 20.5188 32.925 20.446C32.5341 20.3764 32.1389 20.338 31.7432 20.3211C30.425 20.2806 29.084 20.4819 27.8707 21.0243C26.6602 21.5655 25.6098 22.4545 24.8639 23.5491C24.1506 24.5775 23.6995 25.7655 23.4331 26.9775C23.2994 27.5849 23.2104 28.2009 23.1546 28.8193C23.1026 29.4379 23.0672 30.0593 23.0872 30.6804C23.0901 30.8851 23.093 31.0907 23.0959 31.2966C23.1019 31.5027 23.1271 31.7084 23.1424 31.915C23.1629 32.1212 23.1725 32.3291 23.2031 32.5345L23.3039 33.1502C23.5293 34.3971 23.9101 35.6371 24.5896 36.7339C24.7026 36.8963 24.8167 37.0601 24.9253 37.2243C25.013 37.3691 25.1231 37.4975 25.2296 37.6289C25.3384 37.7582 25.4381 37.8961 25.5554 38.0182C25.796 38.2564 26.0261 38.5076 26.3002 38.7095C26.5563 38.9337 26.8498 39.1067 27.1359 39.2881C27.2827 39.3723 27.4381 39.4414 27.5891 39.5171C27.6655 39.5534 27.7407 39.5921 27.8181 39.6255L28.0563 39.7119C28.1931 39.7603 28.3304 39.8126 28.4682 39.8582C28.6091 39.8942 28.7488 39.9289 28.8842 39.9596C29.1522 40.0316 29.4151 40.0367 29.6269 40.0342C29.8992 40.0244 29.8762 39.9751 29.5117 39.8745C29.4093 39.8467 29.3058 39.8187 29.2015 39.7903C29.0984 39.758 28.9968 39.7174 28.8935 39.682C28.7904 39.6463 28.6867 39.6103 28.5826 39.5743C28.4799 39.5351 28.3803 39.4865 28.2784 39.4444C27.5651 39.1419 26.892 38.7398 26.3063 38.2279C25.724 37.7127 25.2295 37.1006 24.8296 36.4321C24.1335 35.2223 23.7387 33.8511 23.5381 32.4563C23.5008 32.1671 23.4783 31.8692 23.4507 31.5713L23.4323 31.3476L23.4288 31.1227C23.4269 30.9729 23.425 30.8236 23.4231 30.6753C23.4053 30.1287 23.4395 29.583 23.4808 29.0399C23.524 28.4964 23.5992 27.9563 23.6997 27.4204C23.7237 27.2804 23.7498 27.135 23.7877 27.0049C23.9653 26.3619 24.1743 25.7246 24.4434 25.1131C24.7131 24.5027 25.0507 23.9219 25.4615 23.4052C26.0962 22.6102 26.9117 21.9708 27.8162 21.5036C27.8965 21.4628 27.9831 21.4188 28.068 21.3911C28.7272 21.1446 29.425 20.931 30.1375 20.8486C30.9199 20.7553 31.7215 20.7407 32.5 20.838C33.2775 20.9439 34.0432 21.1569 34.7315 21.5251C35.5949 21.9755 36.3351 22.6431 36.9007 23.4419C37.4671 24.2414 37.8783 25.1553 38.1578 26.1123C38.3163 26.6502 38.4336 27.2055 38.513 27.7655C38.6626 28.7652 38.681 29.783 38.673 30.8033C38.6682 31.1635 38.657 31.5238 38.6351 31.882C38.6245 32.0612 38.6109 32.2399 38.5944 32.4175C38.5791 32.5911 38.5562 32.7814 38.5346 32.9371L38.5312 32.9686C38.5216 32.9705 38.5103 32.9711 38.4984 32.9726L37.9642 33.0081L36.873 33.0804C36.1453 33.1262 35.4171 33.1867 34.696 33.2076C34.3346 33.2198 33.9731 33.2263 33.6122 33.2263C33.4317 33.2263 33.2514 33.2246 33.0717 33.2206L32.9391 33.2172H32.9047C32.8824 33.2164 32.8543 33.2191 32.8343 33.2145L32.8647 32.9753C32.8867 32.7991 32.9039 32.6235 32.9179 32.4479C32.9466 32.0971 32.9631 31.7473 32.9712 31.3979C32.9887 30.7583 32.9824 30.1172 32.9706 29.4747C32.9517 28.8316 32.9162 28.1855 32.8195 27.5406C32.756 27.1051 32.6595 26.6671 32.485 26.2393C32.4448 26.1319 32.3826 26.0281 32.3315 25.923C32.2613 25.823 32.2059 25.7169 32.1147 25.6262C31.953 25.4377 31.717 25.2806 31.4595 25.2259C31.2023 25.1718 30.9599 25.1835 30.7114 25.25C30.6509 25.2716 30.5888 25.2899 30.5304 25.3164L30.3607 25.4092C30.2579 25.4851 30.1571 25.5638 30.0786 25.6591L30.016 25.7278L29.9643 25.8019L29.8632 25.9511C29.8117 26.0555 29.7493 26.1577 29.7087 26.2644C29.6187 26.4764 29.5551 26.6924 29.4994 26.9084C29.3021 27.7631 29.249 28.6222 29.2298 29.4766C29.2282 29.9027 29.2162 30.3307 29.2479 30.7638C29.2765 31.1948 29.3349 31.6236 29.4223 32.046C29.5095 32.4684 29.6259 32.8844 29.7661 33.2911C29.8354 33.4948 29.9125 33.6955 29.993 33.8942L30.1173 34.1902L30.2392 34.4689C30.2477 34.4831 30.2517 34.4983 30.2491 34.5148L30.2472 34.5763L30.2399 34.7331L30.2205 35.0486L30.1727 35.6811L30.0603 36.9465C30.0387 37.6636 29.9965 38.351 29.9007 39.0463C29.8813 39.1876 29.8531 39.3516 29.8474 39.4631C29.8384 39.6799 29.7683 40.0185 29.8151 40.0475C29.8607 40.0731 29.9632 39.8014 30.0248 39.5932L30.0253 39.5929Z" fill="#1C1F58"/>
<path d="M15.6033 40.0623C12.3673 40.0623 10.4585 39.4519 9.03822 38.8445C8.86478 38.7704 8.78047 38.5739 8.84527 38.3968L10.2486 34.5589C10.3158 34.3751 10.5198 34.28 10.7032 34.3487C12.0094 34.8383 13.34 34.9999 14.1953 34.9999C15.1229 34.9999 15.9051 34.6311 15.9051 33.6811C15.9051 32.8431 15.2905 32.3848 14.2512 32.3848H11.8005C11.6048 32.3848 11.4462 32.2263 11.4462 32.0306V28.448C11.4462 28.2523 11.6048 28.0938 11.8005 28.0938H13.6365C15.011 28.0938 15.7709 27.725 15.7709 26.7192C15.7709 25.9594 15.268 25.4899 14.2286 25.4899C13.3177 25.4899 11.9851 25.8107 10.8867 26.2698C10.7019 26.3471 10.4909 26.2565 10.4197 26.0693L8.99983 22.3341C8.93471 22.1629 9.01119 21.9714 9.17503 21.8898C10.8387 21.0611 12.9211 20.3831 15.5918 20.3831C19.4696 20.3831 21.8163 22.5175 21.8163 25.6576C21.8163 27.2872 21.0113 28.8096 19.7694 29.7523C19.5728 29.9016 19.5833 30.2019 19.7931 30.3323C21.2902 31.2631 22.1181 32.6336 22.1181 34.5194C22.1405 37.4808 20.1177 40.0623 15.603 40.0623H15.6033Z" fill="#545BFE"/>
<path d="M16.1172 40.1558C16.2188 40.1637 16.314 40.1709 16.4132 40.1786C16.5124 40.1811 16.6159 40.1773 16.734 40.1702C17.5729 40.1251 18.4293 39.9688 19.2361 39.619C20.0407 39.2731 20.7869 38.7206 21.3346 37.9915C21.842 37.3232 22.1841 36.5352 22.3465 35.7256C22.3826 35.5514 22.3996 35.3742 22.4261 35.1981C22.4524 35.0218 22.4482 34.8445 22.4599 34.6675C22.4738 34.3142 22.4573 33.9579 22.4026 33.6022C22.3042 32.8918 22.0412 32.193 21.637 31.5966C21.4173 31.2701 21.1543 30.9755 20.866 30.715C20.7213 30.5856 20.5729 30.46 20.4161 30.348C20.3386 30.2902 20.261 30.2331 20.1797 30.1821L20.0593 30.1032L19.9989 30.0638C19.9887 30.0552 19.9913 30.0597 19.9887 30.0565C19.9783 30.0522 19.9727 30.0261 19.9834 30.0109C19.9845 30.0086 19.9865 30.007 19.9884 30.0046C19.9898 30.0038 19.9908 30.0027 19.9917 30.0011L20.017 29.9802L20.1293 29.8877C20.2053 29.8274 20.2773 29.7626 20.3477 29.696C20.6319 29.4328 20.8876 29.14 21.1105 28.8246C21.5572 28.1944 21.87 27.4701 22.0169 26.7115C22.0903 26.3331 22.1255 25.9445 22.1132 25.5606C22.1005 25.3699 22.0988 25.1786 22.0761 24.9886C22.045 24.7994 22.0231 24.6086 21.9833 24.421C21.8226 23.6698 21.4924 22.9475 21.0108 22.3442C20.5314 21.7384 19.9098 21.2579 19.2309 20.9174C18.5506 20.5773 17.8177 20.3608 17.0765 20.2558C16.3349 20.1541 15.5857 20.1402 14.8514 20.1842C13.1927 20.2755 11.5471 20.6554 10.0245 21.3142C9.83383 21.3955 9.64551 21.4818 9.45815 21.5702L9.17927 21.707L9.10663 21.7435C9.07447 21.7608 9.04359 21.781 9.01559 21.8046C8.95911 21.8515 8.91255 21.9101 8.87959 21.9754C8.81335 22.1059 8.80503 22.2651 8.85735 22.4014L8.96903 22.689L9.19175 23.2621L10.0812 25.5558L10.1922 25.8427L10.2477 25.9861L10.2754 26.0578C10.2841 26.0805 10.2932 26.105 10.3092 26.1394C10.3693 26.2646 10.485 26.3618 10.6178 26.3995C10.6841 26.4189 10.7545 26.4243 10.8228 26.4154C10.8906 26.408 10.962 26.3771 11.0013 26.3606C11.3754 26.2054 11.7593 26.0714 12.149 25.9582C12.5385 25.844 12.9346 25.7518 13.3338 25.6856C13.7317 25.624 14.1389 25.5774 14.5297 25.617C14.9145 25.655 15.3095 25.7941 15.5047 26.1122C15.6058 26.2653 15.6529 26.4523 15.6621 26.6432C15.6692 26.8347 15.6516 27.0315 15.5844 27.2051C15.5185 27.3795 15.4012 27.5283 15.2487 27.6381C15.0965 27.7485 14.9149 27.824 14.7252 27.8752C14.3421 27.9744 13.937 27.9947 13.5297 27.9925L12.501 27.9939L11.9866 27.995C11.8994 27.9994 11.8234 27.9851 11.7074 28.0093C11.6017 28.0342 11.5066 28.0984 11.4425 28.1851C11.377 28.2693 11.3453 28.3866 11.3498 28.4843L11.3506 28.7414L11.3521 29.2558L11.3548 30.2846L11.3567 31.3134L11.3572 31.8278V31.9565L11.3577 32.0226C11.3581 32.0491 11.3612 32.0755 11.366 32.1016C11.3866 32.2061 11.4445 32.3024 11.5266 32.3696C11.6084 32.4373 11.7161 32.4738 11.8207 32.4736L12.078 32.4739L12.5925 32.4749L13.6217 32.4789C13.9439 32.485 14.2733 32.4693 14.5804 32.4997C14.8887 32.5339 15.1945 32.6243 15.4277 32.8107C15.6653 32.9934 15.7913 33.2846 15.8076 33.5877C15.8269 33.8907 15.7609 34.2058 15.5623 34.4298C15.3684 34.6566 15.0765 34.7915 14.7732 34.8536C14.4685 34.9216 14.15 34.9155 13.8295 34.9003C13.1898 34.8654 12.5521 34.765 11.9316 34.6054C11.7276 34.5517 11.5236 34.4952 11.322 34.4296C11.2204 34.399 11.121 34.3621 11.0202 34.3286L10.8708 34.2738C10.8164 34.2549 10.7833 34.2382 10.7047 34.2162C10.5633 34.1811 10.4066 34.2123 10.2898 34.3002C10.2311 34.3437 10.1818 34.4003 10.1471 34.4648C10.1101 34.5378 10.1002 34.5794 10.0791 34.6317L9.85367 35.2386C9.62151 35.8558 9.38983 36.4722 9.15783 37.089L8.81175 38.0154L8.72647 38.2477C8.70215 38.3086 8.65127 38.4416 8.66855 38.5582C8.67975 38.6762 8.73047 38.7902 8.81335 38.8754C8.85447 38.9181 8.90295 38.9539 8.95543 38.9806C8.98471 38.9952 9.00519 39.0034 9.02311 39.0104L9.08103 39.0338C9.27175 39.1091 9.46455 39.1854 9.65463 39.2606C10.9597 39.7774 12.3561 40.0754 13.7493 40.1408C14.3482 40.1693 14.982 40.1834 15.4188 40.0853C15.6983 40.0259 15.6692 39.9816 15.2701 39.9493C14.8213 39.9149 14.3546 39.8654 13.8869 39.8208C13.0652 39.7346 12.2445 39.6194 11.4401 39.4294C11.0378 39.3352 10.6396 39.2251 10.2474 39.0952C10.0516 39.0298 9.85719 38.96 9.66407 38.8864L9.37591 38.7717L9.23271 38.7117L9.16119 38.6816L9.12839 38.6675C9.12311 38.6643 9.11687 38.6626 9.11207 38.6589C9.07463 38.6371 9.04647 38.6005 9.03447 38.5584C9.02839 38.5374 9.02647 38.5155 9.02871 38.4941C9.03239 38.4678 9.03287 38.4648 9.05351 38.4102L9.24919 37.8843L9.64071 36.8314C9.90135 36.1288 10.1602 35.4246 10.4133 34.7179C10.4453 34.6264 10.4487 34.6178 10.4753 34.5885C10.4988 34.5638 10.5317 34.5472 10.5655 34.5418C10.5825 34.5394 10.5994 34.5397 10.6162 34.5422C10.6245 34.5442 10.6329 34.5458 10.641 34.549C10.6468 34.5502 10.6754 34.5613 10.6914 34.5669L10.9202 34.6499C11.2268 34.7576 11.5391 34.8514 11.8503 34.9314C12.4242 35.0782 13.009 35.181 13.6031 35.2304C13.9012 35.2531 14.1956 35.2704 14.5159 35.2446C14.8298 35.216 15.1561 35.143 15.4556 34.9666C15.6116 34.877 15.7596 34.7469 15.8719 34.6059C16.0146 34.435 16.109 34.2235 16.1535 34.0115C16.1989 33.7976 16.2033 33.5901 16.1695 33.3731C16.1356 33.1578 16.0514 32.9368 15.9129 32.7512C15.7754 32.5646 15.59 32.4203 15.3959 32.3224C15.0045 32.1269 14.5871 32.0845 14.2055 32.0854C13.8441 32.0838 13.4828 32.0821 13.1226 32.0805C12.8455 32.0768 12.5676 32.0731 12.289 32.0694L11.8709 32.0638L11.8186 32.0632C11.8145 32.0616 11.8129 32.0632 11.8105 32.0616C11.8057 32.0614 11.8021 32.0584 11.798 32.057C11.7901 32.0528 11.7834 32.0456 11.7786 32.0381C11.7746 32.0299 11.7725 32.023 11.7729 32.0136L11.7737 31.8115L11.774 31.392C11.7732 31.1123 11.7701 30.8325 11.7639 30.5526C11.7617 30.4538 11.7645 30.3474 11.7692 30.2499C11.7876 29.8634 11.7922 29.471 11.7933 29.0779V28.4882C11.7933 28.4534 11.7938 28.4658 11.794 28.461L11.7949 28.4568C11.7959 28.4542 11.7975 28.4515 11.7999 28.4491C11.8052 28.444 11.8101 28.4424 11.8162 28.443C12.2396 28.4446 12.6634 28.4464 13.0874 28.448C13.3047 28.4472 13.5129 28.4494 13.738 28.4453C13.9633 28.4442 14.1933 28.4259 14.4257 28.3954C14.658 28.3632 14.8964 28.308 15.1341 28.211C15.37 28.1142 15.6125 27.9618 15.7929 27.7341C15.9754 27.5082 16.0714 27.2256 16.0991 26.9664C16.1242 26.7109 16.1218 26.4474 16.0305 26.1774C15.9292 25.8386 15.6569 25.5392 15.3541 25.3835C15.0501 25.2246 14.7338 25.1677 14.434 25.147C13.8343 25.1198 13.2831 25.2085 12.7354 25.3219C12.19 25.439 11.658 25.5986 11.1369 25.7939L10.9421 25.8694L10.7676 25.9405C10.7597 25.945 10.75 25.9435 10.7428 25.9381C10.7407 25.9373 10.7397 25.9355 10.7381 25.9339C10.7354 25.9286 10.7402 25.9427 10.7229 25.8986L10.6493 25.7104L10.5013 25.3344C10.2834 24.7693 10.0645 24.2013 9.84663 23.6357L9.55799 22.8773L9.41511 22.4973L9.34375 22.3072L9.32599 22.2597C9.31975 22.2435 9.31287 22.2243 9.31479 22.2282C9.31335 22.2245 9.31303 22.2211 9.31335 22.2176C9.31335 22.204 9.32183 22.1888 9.33527 22.1821L9.67671 22.0182C9.91735 21.9075 10.1594 21.7997 10.4044 21.6997C12.1113 20.9882 13.974 20.6563 15.8263 20.6845C16.7444 20.6994 17.6604 20.8435 18.5066 21.1682C19.358 21.4814 20.1077 22.0269 20.6708 22.7258C21.0588 23.2245 21.3263 23.8189 21.4636 24.444C21.5109 24.5973 21.5177 24.76 21.545 24.9178C21.5745 25.0758 21.5772 25.2373 21.5836 25.3982C21.6093 25.721 21.5829 26.0389 21.5385 26.355C21.4743 26.7816 21.3541 27.2002 21.1831 27.5974C21.0093 27.9936 20.7855 28.368 20.5189 28.7091C20.3871 28.881 20.2397 29.04 20.0881 29.1944C20.0089 29.268 19.9308 29.3432 19.8492 29.4141L19.7241 29.5174L19.6615 29.5693C19.6284 29.5965 19.5957 29.6262 19.5679 29.6605C19.4543 29.7966 19.4098 29.9848 19.4489 30.1558C19.4677 30.2416 19.5071 30.3237 19.5633 30.3922C19.5909 30.4269 19.6234 30.4571 19.6577 30.4838L19.709 30.5198L19.7433 30.5421C19.9277 30.6587 20.1073 30.7826 20.2765 30.9186C20.9474 31.4493 21.4685 32.1643 21.7241 32.9837C21.9845 33.7998 22.002 34.6942 21.8786 35.5477C21.7383 36.401 21.3842 37.2162 20.8439 37.8901C20.2948 38.5586 19.5586 39.0618 18.7538 39.3934L18.5029 39.4973C18.4172 39.5262 18.3297 39.5507 18.2431 39.5776L17.9826 39.6568L17.8522 39.6962L17.7186 39.7238L17.1842 39.835C17.0039 39.8606 16.8226 39.8802 16.6417 39.9032C16.5677 39.9125 16.4876 39.9227 16.4114 39.9323C16.3348 39.937 16.2625 39.9432 16.2049 39.9525C15.982 39.9885 15.6169 40.0158 15.6026 40.0734C15.5906 40.1221 15.889 40.1402 16.1162 40.1549L16.1172 40.1558Z" fill="#1C1F58"/>
</svg>
